<?xml version="1.0" encoding="utf-8"?>
<!-- Generator: Adobe Illustrator 19.2.1, SVG Export Plug-In . SVG Version: 6.00 Build 0)  -->
<svg version="1.1" id="Lager_1" xmlns="http://www.w3.org/2000/svg" xmlns:xlink="http://www.w3.org/1999/xlink" x="0px" y="0px"
	 width="1920px" height="1080px" viewBox="0 0 1920 1080" style="enable-background:new 0 0 1920 1080;" xml:space="preserve">
<style type="text/css">
	.st0{fill:#553088;}
	.st1{fill:#FFFFFF;}
</style>
<rect class="st0" width="1920" height="1080"/>
<g>
	<path class="st1" d="M721.4,515.7h31.2v8.6h-20.2v12.8h16v8.3h-16v18.8h-11V515.7z"/>
	<path class="st1" d="M759.5,545.3v-29.6h11.1v28.9c0,8.1,2.4,11.6,9,11.6c6.5,0,9.4-3.1,9.4-12v-28.5h11.1v29.2
		c0,13.2-7.4,20.1-20.5,20.1C766.8,565,759.5,558.2,759.5,545.3z"/>
	<path class="st1" d="M807.1,549h10.5c0.5,4.3,2.3,7.9,9.5,7.9c4.8,0,8-2.6,8-6.5s-2-5.2-9.2-6.3c-12.4-1.6-17.5-5.4-17.5-14.7
		c0-8.3,6.9-14.5,17.7-14.5c10.9,0,17.3,4.9,18.2,14.5h-10.1c-0.7-4.4-3.3-6.5-8.1-6.5s-7.3,2.2-7.3,5.5c0,3.5,1.6,5.1,9,6.2
		c11.8,1.5,17.8,4.7,17.8,14.7c0,8.6-7.1,15.5-18.5,15.5C813.8,565,807.7,558.7,807.1,549z"/>
	<path class="st1" d="M853.9,515.7H865v48.6h-11.1V515.7z"/>
	<path class="st1" d="M873.2,540.3v-0.5c0-14.5,10.6-24.7,25-24.7c14.6,0,25,9.9,25,24.5v0.5c0,14.5-9.9,25-25.1,25
		C882.9,565,873.2,554.5,873.2,540.3z M911.7,540.1v-0.5c0-9.4-5-15.9-13.5-15.9c-8.4,0-13.5,6.2-13.5,16v0.5c0,9.9,5.7,16,13.7,16
		C906.5,556.2,911.7,549.9,911.7,540.1z"/>
	<path class="st1" d="M931.1,515.7h12.8l18.5,32v-32h9.8v48.6h-11L941,529.7v34.6h-9.8L931.1,515.7L931.1,515.7z"/>
	<path class="st1" d="M996.3,518.3h4.9l10.4,30.9h-3.7l-3-8.9h-12.7l-3,8.9h-3.5L996.3,518.3z M993.3,537.3h10.7l-5.4-15.9
		L993.3,537.3z"/>
	<path class="st1" d="M1015,542.2h3.5c0.3,2.7,1.7,4.4,5.3,4.4c3.4,0,4.9-1.2,4.9-3.6s-1.8-3.2-5.3-3.8c-5.9-1.1-7.9-2.7-7.9-6.6
		c0-4.2,4.1-6.3,7.6-6.3c4.1,0,7.6,1.6,8.2,6.5h-3.5c-0.5-2.5-1.9-3.5-4.7-3.5c-2.6,0-4.3,1.3-4.3,3.2c0,2,1.1,2.8,5.3,3.6
		c4.7,0.9,7.9,1.9,7.9,6.7c0,4.1-2.8,6.9-8.3,6.9C1018.5,549.5,1015.2,546.8,1015,542.2z"/>
	<path class="st1" d="M1035.7,542.2h3.5c0.3,2.7,1.7,4.4,5.3,4.4c3.4,0,4.9-1.2,4.9-3.6s-1.8-3.2-5.3-3.8c-5.9-1.1-7.9-2.7-7.9-6.6
		c0-4.2,4.1-6.3,7.6-6.3c4.1,0,7.6,1.6,8.2,6.5h-3.5c-0.5-2.5-1.9-3.5-4.7-3.5c-2.6,0-4.3,1.3-4.3,3.2c0,2,1.1,2.8,5.3,3.6
		c4.7,0.9,7.9,1.9,7.9,6.7c0,4.1-2.8,6.9-8.3,6.9C1039.2,549.5,1036,546.8,1035.7,542.2z"/>
	<path class="st1" d="M1056.6,538.1v-0.3c0-6.8,4.7-11.5,11.1-11.5c6.4,0,11.1,4.7,11.1,11.5v0.3c0,6.8-4.7,11.5-11.1,11.5
		C1061.3,549.6,1056.6,544.7,1056.6,538.1z M1075.1,538.1v-0.3c0-5.2-2.9-8.6-7.4-8.6s-7.4,3.4-7.4,8.5v0.3c0,5.1,2.8,8.5,7.4,8.5
		C1072.3,546.6,1075.1,543.1,1075.1,538.1z"/>
	<path class="st1" d="M1082.7,538.1v-0.3c0-6.9,4.9-11.6,11-11.6c4.7,0,9.1,2.2,9.8,7.9h-3.5c-0.6-3.6-3.2-4.9-6.3-4.9
		c-4.1,0-7.3,3.3-7.3,8.6v0.3c0,5.5,3,8.5,7.4,8.5c3.2,0,6.1-1.9,6.5-5.5h3.3c-0.5,4.9-4.4,8.5-9.8,8.5
		C1087.5,549.5,1082.7,545.1,1082.7,538.1z"/>
	<path class="st1" d="M1108.5,519.5c0-1.3,1.1-2.4,2.4-2.4s2.4,1.1,2.4,2.4c0,1.3-1.1,2.4-2.4,2.4S1108.5,520.8,1108.5,519.5z
		 M1109.1,526.6h3.6v22.6h-3.6V526.6z"/>
	<path class="st1" d="M1118.2,542.9c0-5.2,5.5-7,11.3-7h3.2v-1.6c0-3.6-1.4-5.1-4.8-5.1c-3.1,0-4.8,1.3-5.2,4.1h-3.6
		c0.5-5.1,4.6-7,8.9-7s8.2,1.8,8.2,8.1v14.9h-3.6v-2.8c-1.7,2.1-3.7,3.2-7,3.2C1121.5,549.5,1118.2,547.5,1118.2,542.9z
		 M1132.7,541.2v-2.8h-3.1c-4.5,0-7.9,1.1-7.9,4.4c0,2.3,1.1,3.8,4.3,3.8C1129.8,546.7,1132.7,544.7,1132.7,541.2z"/>
	<path class="st1" d="M1144.1,543.5v-13.9h-3.2v-3h3.2v-5.1h3.6v5.1h5.3v3h-5.3v13.6c0,2.2,1,3.3,2.8,3.3c1.1,0,2-0.2,2.8-0.5v3
		c-0.7,0.3-1.6,0.5-3.1,0.5C1146.1,549.5,1144.1,547,1144.1,543.5z"/>
	<path class="st1" d="M1157,538.1v-0.3c0-6.8,4.4-11.6,10.6-11.6c5.2,0,10.1,3.2,10.1,11.2v1.2h-17c0.2,5.1,2.6,8,7.3,8
		c3.5,0,5.5-1.3,6-3.9h3.6c-0.8,4.5-4.5,6.9-9.6,6.9C1161.5,549.5,1157,545,1157,538.1z M1174,535.7c-0.3-4.7-2.8-6.5-6.5-6.5
		s-6.1,2.5-6.7,6.5H1174z"/>
	<path class="st1" d="M1181.6,542.2h3.5c0.3,2.7,1.7,4.4,5.3,4.4c3.4,0,4.9-1.2,4.9-3.6s-1.8-3.2-5.3-3.8c-5.9-1.1-7.9-2.7-7.9-6.6
		c0-4.2,4.1-6.3,7.6-6.3c4.1,0,7.6,1.6,8.2,6.5h-3.5c-0.5-2.5-1.9-3.5-4.7-3.5c-2.6,0-4.3,1.3-4.3,3.2c0,2,1.1,2.8,5.3,3.6
		c4.7,0.9,7.9,1.9,7.9,6.7c0,4.1-2.8,6.9-8.3,6.9C1185,549.5,1181.8,546.8,1181.6,542.2z"/>
</g>
</svg>
