<?xml version="1.0" encoding="utf-8"?>
<!-- Generator: Adobe Illustrator 19.2.1, SVG Export Plug-In . SVG Version: 6.00 Build 0)  -->
<svg version="1.1" id="Lager_1" xmlns="http://www.w3.org/2000/svg" xmlns:xlink="http://www.w3.org/1999/xlink" x="0px" y="0px"
	 width="1920px" height="1080px" viewBox="0 0 1920 1080" style="enable-background:new 0 0 1920 1080;" xml:space="preserve">
<style type="text/css">
	.st0{fill:#EA5C1C;}
	.st1{fill:#FFFFFF;}
</style>
<rect class="st0" width="1920" height="1080"/>
<g>
	<rect x="811.2" y="492.6" class="st1" width="297.6" height="94.7"/>
	<g>
		<path class="st0" d="M844.1,517.8l-3.6,17.2h18.2l3.6-17.2h9.9l-9.5,44.9h-9.9l4.1-19.4h-18.2l-4.1,19.4h-9.9l9.4-44.9H844.1z"/>
		<path class="st0" d="M890.7,562.7l1-4.5h-0.1c-2.9,3.6-6.7,5.3-11.4,5.3c-6.3,0-9.5-2.9-9.5-8.7c0-0.3,0-0.8,0.1-1.3
			s0.1-1.1,0.3-1.6c0.1-0.5,0.2-1.1,0.3-1.5c0.1-0.5,0.2-0.9,0.3-1.2l4-19.1h8.9l-4,19.1c-0.1,0.3-0.2,0.6-0.2,0.9
			c-0.1,0.4-0.1,0.7-0.2,1.1c-0.1,0.4-0.1,0.7-0.1,1.1s0,0.6,0,0.8c0,1,0.4,1.8,1.4,2.4c0.9,0.6,1.9,0.9,2.9,0.9
			c1.3,0,2.5-0.3,3.6-0.8c1-0.5,1.9-1.2,2.6-2c0.7-0.8,1.3-1.8,1.8-2.9s0.8-2.2,1.1-3.3l3.6-17.2h8.9l-6.8,32.5H890.7z"/>
		<path class="st0" d="M923.9,517.8l-3.3,15.8h0.1c1.4-1.5,2.8-2.6,4.2-3.3c1.4-0.7,3.2-1,5.4-1c2.1,0,3.9,0.4,5.3,1.1
			c1.5,0.7,2.7,1.7,3.6,3c0.9,1.3,1.6,2.7,2.1,4.4c0.4,1.7,0.7,3.5,0.7,5.3c0,2.5-0.4,5-1.1,7.5c-0.7,2.5-1.8,4.6-3.2,6.5
			s-3.2,3.4-5.3,4.6c-2.1,1.2-4.5,1.8-7.3,1.8c-2.3,0-4.3-0.4-6.2-1.3c-1.9-0.8-3.2-2.4-4-4.7h-0.1l-1.1,5.1h-8.2l9.4-44.9h9V517.8z
			 M922.3,537.3c-1.2,0.9-2.2,2.1-3,3.5s-1.3,2.9-1.7,4.5s-0.5,3.2-0.5,4.6c0,2,0.6,3.7,1.7,4.9c1.1,1.3,2.7,1.9,4.8,1.9
			c1.7,0,3.2-0.4,4.4-1.3c1.2-0.9,2.2-2,3-3.4s1.3-2.8,1.7-4.4s0.5-3.1,0.5-4.5c0-2.1-0.5-3.8-1.4-5.2c-1-1.4-2.6-2.1-4.9-2.1
			C925,535.9,923.5,536.4,922.3,537.3z"/>
		<path class="st0" d="M961.1,517.8l-3.3,15.8h0.1c1.4-1.5,2.8-2.6,4.2-3.3c1.4-0.7,3.2-1,5.4-1c2.1,0,3.9,0.4,5.3,1.1
			c1.5,0.7,2.7,1.7,3.6,3c0.9,1.3,1.6,2.7,2.1,4.4c0.4,1.7,0.7,3.5,0.7,5.3c0,2.5-0.4,5-1.1,7.5c-0.7,2.5-1.8,4.6-3.2,6.5
			s-3.2,3.4-5.3,4.6c-2.1,1.2-4.5,1.8-7.3,1.8c-2.3,0-4.3-0.4-6.2-1.3c-1.9-0.8-3.2-2.4-4-4.7H952l-1.1,5.1h-8.2l9.4-44.9h9V517.8z
			 M959.5,537.3c-1.2,0.9-2.2,2.1-3,3.5s-1.3,2.9-1.7,4.5s-0.5,3.2-0.5,4.6c0,2,0.6,3.7,1.7,4.9c1.1,1.3,2.7,1.9,4.8,1.9
			c1.7,0,3.2-0.4,4.4-1.3c1.2-0.9,2.2-2,3-3.4s1.3-2.8,1.7-4.4s0.5-3.1,0.5-4.5c0-2.1-0.5-3.8-1.4-5.2c-1-1.4-2.6-2.1-4.9-2.1
			C962.2,535.9,960.7,536.4,959.5,537.3z"/>
		<path class="st0" d="M1001.6,536.3c-0.8-0.8-2-1.2-3.8-1.2c-1.6,0-2.9,0.2-3.9,0.7s-1.5,1.3-1.5,2.5c0,0.7,0.3,1.3,0.9,1.8
			c0.6,0.5,1.7,1,3.2,1.4l4.5,1.4c1.2,0.4,2.3,0.8,3.4,1.3c1,0.5,1.9,1.1,2.7,1.9c0.8,0.7,1.4,1.6,1.8,2.6c0.4,1,0.7,2.2,0.7,3.5
			c0,2-0.5,3.7-1.4,5.1c-0.9,1.4-2.1,2.5-3.6,3.4s-3.1,1.5-5,1.9c-1.8,0.4-3.7,0.6-5.6,0.6c-1.6,0-3.2-0.2-4.8-0.5
			c-1.6-0.3-3.1-0.9-4.4-1.7c-1.3-0.8-2.4-1.8-3.2-3.1c-0.8-1.3-1.3-2.9-1.3-4.8v-1.3h8.2v1.1c0,0.8,0.2,1.4,0.6,2
			c0.4,0.5,0.9,1,1.5,1.4s1.3,0.6,2.1,0.8c0.8,0.2,1.5,0.3,2.3,0.3c0.7,0,1.3-0.1,2-0.2c0.7-0.1,1.3-0.3,1.8-0.7
			c0.5-0.3,1-0.7,1.3-1.2s0.5-1.1,0.5-1.9c0-1.1-0.3-1.9-0.9-2.4c-0.6-0.5-1.4-0.9-2.3-1.2l-6.9-2.2c-1.1-0.4-2.1-0.8-3-1.2
			s-1.6-0.9-2.2-1.6c-0.6-0.6-1.1-1.4-1.4-2.3c-0.3-0.9-0.5-2-0.5-3.3c0-1.9,0.5-3.5,1.4-4.8c0.9-1.3,2.1-2.4,3.5-3.2
			c1.4-0.8,3-1.4,4.7-1.8s3.3-0.5,4.9-0.5c1.8,0,3.5,0.1,5.1,0.4s3.1,0.8,4.3,1.6c1.2,0.8,2.2,1.8,2.9,3.2c0.7,1.3,1,3.1,1,5.2h-8.3
			C1002.7,538.2,1002.3,537.2,1001.6,536.3z"/>
		<path class="st0" d="M1035.9,530.2l-1.4,6h-6.4l-3.3,16.2c-0.1,0.3-0.1,0.6-0.2,0.9c-0.1,0.3-0.1,0.5-0.1,0.6c0,0.6,0.1,1,0.3,1.4
			s0.4,0.6,0.7,0.7c0.3,0.2,0.6,0.3,1,0.3c0.4,0,0.7,0,1,0c1.1,0,2.2-0.1,3.2-0.2l-1.5,6.9c-0.9,0.1-1.8,0.2-2.8,0.2
			c-0.9,0.1-1.9,0.1-2.8,0.1c-1,0-2.1-0.1-3.1-0.3c-1-0.2-1.9-0.5-2.8-1c-0.8-0.5-1.5-1.1-2-2c-0.5-0.8-0.7-1.9-0.7-3.3
			c0-0.4,0-0.9,0.1-1.4s0.2-1.1,0.3-1.7l3.6-17.4h-5.8l1.4-6h5.7l2-9.9h8.9l-2,9.9H1035.9z"/>
		<path class="st0" d="M1043.2,549.2c0,0.2,0,0.3,0,0.5v0.8c0,1.9,0.6,3.4,1.8,4.6c1.2,1.2,3,1.8,5.4,1.8c0.9,0,1.7-0.1,2.4-0.4
			s1.3-0.6,1.8-1s1-0.9,1.4-1.4c0.4-0.5,0.8-1.1,1.1-1.6h8.9c-0.7,1.8-1.6,3.5-2.5,4.8c-1,1.4-2.1,2.5-3.5,3.5
			c-1.3,0.9-2.9,1.6-4.7,2.1c-1.8,0.5-3.8,0.7-6.2,0.7c-2.2,0-4.2-0.3-5.9-0.9c-1.8-0.6-3.3-1.5-4.6-2.7c-1.3-1.2-2.2-2.7-2.9-4.4
			c-0.7-1.8-1-3.8-1-6.2c0-2.6,0.4-5.1,1.3-7.5c0.8-2.4,2-4.5,3.6-6.4c1.5-1.9,3.4-3.4,5.6-4.5s4.7-1.7,7.5-1.7
			c2.3,0,4.3,0.3,6.2,0.9c1.9,0.6,3.5,1.5,4.8,2.7c1.3,1.2,2.3,2.7,3.1,4.5c0.7,1.8,1.1,3.8,1.1,6.2c0,1.6-0.2,3.3-0.5,5.1h-24
			C1043.2,548.8,1043.2,548.9,1043.2,549.2z M1058.9,540.3c-0.1-0.8-0.4-1.6-0.8-2.2c-0.4-0.7-1-1.2-1.8-1.6
			c-0.8-0.4-1.8-0.6-3.1-0.6s-2.4,0.2-3.3,0.6c-1,0.4-1.8,0.9-2.5,1.5s-1.3,1.4-1.8,2.2c-0.5,0.8-0.9,1.7-1.2,2.6h14.9
			C1059.1,542.1,1059.1,541.2,1058.9,540.3z"/>
		<path class="st0" d="M1083.4,530.2l-1.3,5.8l0.1,0.1c1-2.3,2.5-4,4.6-5.1c2-1.2,4.2-1.7,6.6-1.7c0.9,0,1.8,0.1,2.8,0.2l-1.8,8.7
			c-0.6-0.1-1.3-0.3-1.9-0.4c-0.6-0.1-1.3-0.2-1.9-0.2c-1.7,0-3.2,0.3-4.4,0.9s-2.2,1.4-3,2.4s-1.5,2.1-1.9,3.4
			c-0.5,1.3-0.9,2.6-1.2,4l-3,14.4h-8.9l6.7-32.5H1083.4L1083.4,530.2z"/>
	</g>
</g>
</svg>
