<?xml version="1.0" encoding="utf-8"?>
<!-- Generator: Adobe Illustrator 20.1.0, SVG Export Plug-In . SVG Version: 6.00 Build 0)  -->
<svg version="1.1" id="Lager_1" xmlns="http://www.w3.org/2000/svg" xmlns:xlink="http://www.w3.org/1999/xlink" x="0px" y="0px"
	 viewBox="0 0 1920 1080" style="enable-background:new 0 0 1920 1080;" xml:space="preserve">
<style type="text/css">
	.st0{fill:#554D7C;}
	.st1{fill:#FFFFFF;}
</style>
<rect class="st0" width="1920" height="1080"/>
<g id="XMLID_93_">
	<path id="XMLID_115_" class="st1" d="M740.2,519.5v45.2h9.8c5.3,0,9.5-1.7,12.5-5.2c3.1-3.5,4.6-8,4.6-13.4v-7.9
		c0-5.4-1.5-9.9-4.6-13.4c-3.1-3.5-7.2-5.2-12.5-5.2H740.2z M750,513.4c7.5,0,13.5,2.3,18.1,6.9c4.6,4.6,6.8,10.6,6.8,17.9v7.8
		c0,7.3-2.3,13.3-6.8,17.9c-4.6,4.6-10.6,6.9-18.1,6.9h-24v-5l6.4-1.1v-45.2l-6.4-1.1v-5h6.4H750z"/>
	<path id="XMLID_112_" class="st1" d="M800.9,533.4c-2.6,0-4.8,1.1-6.7,3.3c-1.8,2.2-3,4.9-3.4,8.2l0.1,0.2h19.7v-1
		c0-3-0.8-5.6-2.4-7.6C806.5,534.4,804.1,533.4,800.9,533.4 M802.1,571.5c-5.9,0-10.7-2-14.2-5.9c-3.5-4-5.3-9.1-5.3-15.4v-1.7
		c0-6.1,1.8-11.1,5.4-15.1c3.6-4,7.9-6,12.8-6c5.7,0,10.1,1.7,13,5.2c3,3.5,4.4,8.1,4.4,13.9v4.8h-27.7l-0.1,0.2
		c0.1,4.1,1.1,7.5,3.1,10.1c2,2.6,4.8,4,8.4,4c2.6,0,4.9-0.4,6.9-1.1c2-0.7,3.7-1.8,5.1-3.1l3,5c-1.5,1.5-3.5,2.7-6,3.7
		C808.6,571,805.6,571.5,802.1,571.5"/>
	<path id="XMLID_111_" class="st1" d="M826,533.9v-5.8h6.7v-4.6c0-4.8,1.4-8.5,4.2-11.1c2.8-2.6,6.7-3.9,11.7-3.9
		c1.7,0,3.5,0.2,5.2,0.6c1.7,0.4,3.7,1,6,1.8l-1.3,6.3c-1.4-0.6-2.9-1-4.5-1.4c-1.6-0.4-3.2-0.6-4.8-0.6c-3.1,0-5.3,0.7-6.7,2
		c-1.3,1.4-2,3.5-2,6.3v4.6h24.3v36.6l6.4,1.1v5h-20.6v-5l6.4-1.1v-30.8h-16.5v30.8l6.4,1.1v5h-20.6v-5l6.4-1.1v-30.8H826z"/>
	<path id="XMLID_110_" class="st1" d="M907.5,541.5h-5.8l-1.3-5.1c-0.9-0.9-2.1-1.6-3.6-2.1c-1.4-0.5-3.1-0.8-4.9-0.8
		c-2.8,0-4.8,0.6-6.1,1.8c-1.3,1.2-2,2.7-2,4.4c0,1.7,0.6,3,1.8,4c1.2,1,3.6,1.8,7.2,2.6c5.4,1.2,9.4,2.7,12,4.7
		c2.6,2,3.9,4.6,3.9,8c0,3.8-1.5,6.8-4.6,9.2c-3.1,2.3-7,3.5-12,3.5c-3.2,0-6.1-0.4-8.7-1.1c-2.6-0.8-4.9-1.8-6.9-3.2l0-9.7h5.8
		l1.5,5.7c0.9,0.8,2.1,1.4,3.6,1.8c1.5,0.4,3.1,0.6,4.7,0.6c2.8,0,4.9-0.6,6.5-1.7c1.6-1.1,2.3-2.6,2.3-4.4c0-1.7-0.6-3.1-1.9-4.2
		c-1.3-1.1-3.8-2.1-7.4-2.9c-5.2-1.1-9.1-2.7-11.7-4.6c-2.6-1.9-3.9-4.6-3.9-7.9c0-3.5,1.5-6.4,4.4-8.9c3-2.4,6.8-3.7,11.5-3.7
		c3.2,0,6.1,0.4,8.7,1.3c2.6,0.8,4.7,2,6.4,3.5L907.5,541.5z"/>
	<path id="XMLID_107_" class="st1" d="M923.9,549.9c0,4.5,0.9,8.2,2.8,11.2c1.9,2.9,4.7,4.4,8.5,4.4c3.7,0,6.5-1.5,8.4-4.4
		c1.9-2.9,2.9-6.7,2.9-11.2V549c0-4.5-1-8.2-2.9-11.1c-1.9-3-4.7-4.5-8.5-4.5s-6.5,1.5-8.4,4.5c-1.9,3-2.8,6.7-2.8,11.1V549.9z
		 M916.1,549c0-6.3,1.7-11.5,5.1-15.6c3.4-4.1,8-6.1,13.9-6.1c5.9,0,10.5,2,14,6.1c3.4,4.1,5.1,9.3,5.1,15.6v0.9
		c0,6.4-1.7,11.6-5.1,15.6c-3.4,4-8,6.1-13.9,6.1c-5.9,0-10.6-2-14-6.1c-3.4-4.1-5.1-9.3-5.1-15.6V549z"/>
	<polygon id="XMLID_106_" class="st1" points="1022.4,520.3 1022.2,520.2 1000.9,570.7 997.6,570.7 976.3,520.5 976.1,520.5
		976.5,545.4 976.5,566.7 983,567.3 983,570.7 965.4,570.7 965.4,567.3 971.9,566.7 971.9,517.4 965.4,516.9 965.4,513.4
		971.9,513.4 978,513.4 999.1,563.9 999.3,563.9 1020.5,513.4 1033.1,513.4 1033.1,516.9 1026.7,517.4 1026.7,566.7 1033.1,567.3
		1033.1,570.7 1015.6,570.7 1015.6,567.3 1022,566.7 1022,545.4 	"/>
	<path id="XMLID_103_" class="st1" d="M1057.9,531.3c-3.5,0-6.4,1.3-8.8,4c-2.4,2.7-3.8,6-4.2,10l0.1,0.2h25v-1.2
		c0-3.7-1.1-6.8-3.3-9.3C1064.6,532.6,1061.6,531.3,1057.9,531.3 M1058.5,571.5c-5.4,0-9.8-2-13.3-5.9c-3.5-3.9-5.3-8.9-5.3-15v-2.2
		c0-6.1,1.8-11.1,5.3-15.2c3.5-4,7.7-6,12.7-6c5.2,0,9.3,1.7,12.3,5c3,3.3,4.5,7.7,4.5,13.2v4h-30.1v1.1c0,4.8,1.3,8.8,3.8,12
		c2.6,3.2,5.9,4.9,10.1,4.9c2.9,0,5.4-0.4,7.5-1.2c2.1-0.8,3.8-2,5.3-3.5l2,3.2c-1.6,1.7-3.6,3-6.1,4
		C1064.9,571.1,1061.9,571.5,1058.5,571.5"/>
	<path id="XMLID_100_" class="st1" d="M1087.9,550.6c0,5.1,1,9.2,3.1,12.3c2.1,3.1,5.2,4.6,9.3,4.6c3,0,5.6-0.7,7.6-2.1
		c2-1.4,3.6-3.2,4.7-5.6v-20.2c-1-2.4-2.6-4.4-4.5-5.9c-2-1.5-4.6-2.3-7.7-2.3c-4.1,0-7.3,1.7-9.4,5.1c-2.1,3.4-3.1,7.8-3.1,13.3
		V550.6z M1112.8,564.6c-1.4,2.2-3.2,4-5.5,5.2c-2.2,1.2-4.9,1.8-7.9,1.8c-5.1,0-9.1-1.9-12-5.7c-2.9-3.8-4.3-8.9-4.3-15.2v-0.8
		c0-6.8,1.4-12.2,4.3-16.3c2.9-4.1,6.9-6.1,12-6.1c3,0,5.5,0.6,7.7,1.9c2.2,1.2,4,3,5.4,5.3v-21.2l-6.4-0.5v-3.5h6.4h4.7v57.5
		l6.4,0.5v3.5h-10.6L1112.8,564.6z"/>
	<path id="XMLID_97_" class="st1" d="M1141.9,515.9h-4.7v-6.6h4.7V515.9z M1130.7,567.3l6.4-0.5v-34.6l-6.4-0.5v-3.5h11.1v38.6
		l6.4,0.5v3.5h-17.5V567.3z"/>
	<path id="XMLID_94_" class="st1" d="M1170.1,567.4c3.4,0,6.4-0.8,9-2.4c2.6-1.6,4.5-3.6,5.6-6.1v-8.5h-9.5c-4.3,0-7.7,0.9-10.3,2.7
		c-2.6,1.8-3.8,4-3.8,6.7c0,2.3,0.8,4.1,2.4,5.5C1165.1,566.7,1167.3,567.4,1170.1,567.4 M1185.6,570.7c-0.3-1.4-0.5-2.7-0.7-3.7
		c-0.1-1.1-0.2-2.1-0.2-3.2c-1.6,2.2-3.7,4.1-6.3,5.6c-2.6,1.5-5.6,2.2-8.9,2.2c-4.2,0-7.4-1.1-9.7-3.2c-2.3-2.1-3.4-5.1-3.4-8.7
		c0-3.9,1.7-7.1,5.1-9.4c3.4-2.3,8-3.5,13.8-3.5h9.4v-5.6c0-3-1-5.4-2.9-7.2c-2-1.7-4.7-2.6-8.2-2.6c-2.4,0-4.5,0.3-6.5,1
		c-2,0.6-3.6,1.5-4.9,2.6l-0.4,5.7h-3.9l0-8.2c2-1.5,4.3-2.8,7.1-3.7c2.7-0.9,5.7-1.4,8.8-1.4c4.7,0,8.5,1.2,11.3,3.6
		c2.9,2.4,4.3,5.8,4.3,10.3v21c0,0.9,0,1.7,0.1,2.5c0,0.8,0.1,1.6,0.3,2.3l4.3,0.3v3.5H1185.6z"/>
</g>
</svg>
