<?xml version="1.0" encoding="utf-8"?>
<!-- Generator: Adobe Illustrator 19.2.1, SVG Export Plug-In . SVG Version: 6.00 Build 0)  -->
<svg version="1.1" id="Lager_1" xmlns="http://www.w3.org/2000/svg" xmlns:xlink="http://www.w3.org/1999/xlink" x="0px" y="0px"
	 width="1920px" height="1080px" viewBox="0 0 1920 1080" style="enable-background:new 0 0 1920 1080;" xml:space="preserve">
<g>
	<path d="M697.3,513h9.6v54.5h-9.6V513z"/>
	<path d="M738.9,512.7h3l33.7,35.1V513h9.6v54.9h-2.6l-34.2-34.2v33.8h-9.6V512.7z"/>
	<path d="M817.2,513h20.6c16.9,0,29.2,11.4,29.2,27.2c0,15.6-12.5,27.3-29.2,27.3h-20.6V513z M826.9,521.9v36.8h10.9
		c10.6,0,18.8-7.7,18.8-18.3c0-10.7-7.8-18.5-18.8-18.5H826.9z"/>
	<path d="M895.4,513h9.6v54.5h-9.6V513z"/>
	<path d="M937,513h35.5v8.8h-25.8v15.3H970v8.5h-23.4v13h25.8v8.8H937V513z"/>
	<path d="M1028.6,513h9.6v45.7h25.8v8.8h-35.5V513z"/>
	<path d="M1089,513h35.5v8.8h-25.8v15.3h23.4v8.5h-23.4v13h25.8v8.8H1089V513z"/>
	<path d="M1154.2,513h35.5v8.8h-25.8v15.3h23.4v8.5h-23.4v13h25.8v8.8h-35.5V513z"/>
	<path d="M1211.8,517.6c0-3.1,2.4-5.6,5.4-5.6c3,0,5.4,2.5,5.4,5.6c0,3-2.4,5.5-5.4,5.5C1214.2,523.1,1211.8,520.6,1211.8,517.6z
		 M1221.4,517.6c0-2.4-1.8-4.4-4.2-4.4c-2.3,0-4.2,2-4.2,4.4c0,2.4,1.9,4.4,4.2,4.4C1219.6,522,1221.4,520,1221.4,517.6z
		 M1215.1,514.6h1.8c1.8,0,2.6,0.8,2.6,1.8c0,0.7-0.4,1.4-1.1,1.8l1.5,2.3h-1.5l-1.1-2.1h-0.8v2.1h-1.3V514.6z M1216.4,517.5h0.5
		c0.7,0,1.2-0.4,1.2-1c0-0.5-0.4-0.8-1.1-0.8h-0.6V517.5z"/>
</g>
</svg>
