<?xml version="1.0" encoding="utf-8"?>
<!-- Generator: Adobe Illustrator 19.2.1, SVG Export Plug-In . SVG Version: 6.00 Build 0)  -->
<svg version="1.1" id="Lager_1" xmlns="http://www.w3.org/2000/svg" xmlns:xlink="http://www.w3.org/1999/xlink" x="0px" y="0px"
	 width="1920px" height="1080px" viewBox="0 0 1920 1080" style="enable-background:new 0 0 1920 1080;" xml:space="preserve">
<style type="text/css">
	.st0{fill:#1A73B9;}
	.st1{fill:#FFFFFF;}
	
		.st2{fill:none;stroke:#FFFFFF;stroke-width:6.4675;stroke-linecap:round;stroke-linejoin:round;stroke-miterlimit:10;stroke-dasharray:0.2587,10.348;}
	.st3{fill:#07499D;}
	.st4{fill:none;}
</style>
<rect class="st0" width="1920" height="1080"/>
<rect x="795.8" y="1400" class="st0" width="392" height="49.7"/>
<g>
	<g>
		<g>
			<path class="st1" d="M880.4,496.9l-0.2,0l-11.2,30.9h-5.6L852.3,497l-0.2,0l0.8,18.3v6.6l4.5,0.9v5h-17.3v-5l4.4-0.9V492
				l-4.4-0.9v-5h4.4h10.9l10.6,30.7h0.2l10.7-30.7h15.4v5L888,492v29.9l4.5,0.9v5h-17.3v-5l4.4-0.9v-6.6L880.4,496.9z"/>
			<path class="st1" d="M915.4,527.8c-0.2-0.5-0.4-1-0.6-1.6c-0.2-0.5-0.3-1.1-0.4-1.6c-1,1.1-2.2,2.1-3.6,2.8
				c-1.4,0.7-3.1,1.1-4.9,1.1c-3,0-5.4-0.8-7.2-2.5c-1.8-1.7-2.7-3.9-2.7-6.7c0-2.9,1.2-5.1,3.5-6.7c2.3-1.6,5.7-2.4,10.3-2.4h4.3
				v-3c0-1.5-0.4-2.6-1.3-3.5c-0.9-0.8-2.1-1.2-3.8-1.2c-1,0-1.8,0.1-2.6,0.3c-0.7,0.2-1.3,0.5-1.8,0.8l-0.5,3.3h-6.3l0-6.9
				c1.5-1,3.3-1.9,5.3-2.6c2-0.7,4.1-1.1,6.5-1.1c3.8,0,7,0.9,9.4,2.8c2.4,1.9,3.6,4.6,3.6,8v12.8c0,0.5,0,0.9,0,1.3
				c0,0.4,0,0.8,0.1,1.2l2.6,0.3v5H915.4z M908.1,522.2c1.3,0,2.4-0.3,3.4-0.8c1-0.5,1.8-1.2,2.4-2v-4.7h-4.3c-1.8,0-3.1,0.4-4,1.2
				c-0.9,0.8-1.4,1.8-1.4,3c0,1.1,0.3,1.9,1,2.5C906,521.9,906.9,522.2,908.1,522.2z"/>
			<path class="st1" d="M928.5,522.8l4-0.9v-19.2l-4.4-0.9v-5h12.2l0.4,4.5c0.7-1.6,1.7-2.9,2.8-3.8c1.1-0.9,2.5-1.3,4-1.3
				c0.4,0,0.9,0,1.4,0.1c0.5,0.1,0.9,0.1,1.2,0.2l-0.9,7.6l-3.4-0.1c-1.2,0-2.2,0.2-3,0.7c-0.8,0.5-1.4,1.2-1.8,2v15.1l4,0.9v5
				h-16.4V522.8z"/>
			<path class="st1" d="M950.2,488.1v-5h12.8V509h1.9l4.8-6.8l-2.7-0.4v-5h15.2v5l-3.7,0.8l-5.6,7.7l7.8,11.8l3.2,0.7v5h-14.3v-5
				l1.7-0.3l-4.8-7.7h-3.6v7.1l3.6,0.9v5h-16v-5l4-0.9V489L950.2,488.1z"/>
			<path class="st1" d="M986.5,522.8l4-0.9v-19.2l-4.4-0.9v-5h12.2l0.4,4.4c1-1.6,2.3-2.8,3.8-3.7c1.5-0.9,3.2-1.3,5.1-1.3
				c3.1,0,5.6,1,7.3,3c1.8,2,2.6,5.1,2.6,9.3v13.5l4,0.9v5h-16v-5l3.6-0.9v-13.5c0-2.1-0.4-3.6-1.3-4.4c-0.8-0.9-2.1-1.3-3.8-1.3
				c-1.1,0-2.1,0.2-3,0.7c-0.9,0.4-1.6,1.1-2.2,1.9v16.6l3.4,0.9v5h-15.8V522.8z"/>
			<path class="st1" d="M1043.9,527.8c-0.2-0.5-0.4-1-0.6-1.6c-0.2-0.5-0.3-1.1-0.4-1.6c-1,1.1-2.2,2.1-3.6,2.8
				c-1.4,0.7-3.1,1.1-4.9,1.1c-3,0-5.4-0.8-7.2-2.5c-1.8-1.7-2.7-3.9-2.7-6.7c0-2.9,1.2-5.1,3.5-6.7c2.3-1.6,5.7-2.4,10.3-2.4h4.3
				v-3c0-1.5-0.4-2.6-1.3-3.5c-0.9-0.8-2.1-1.2-3.8-1.2c-1,0-1.8,0.1-2.6,0.3c-0.7,0.2-1.3,0.5-1.8,0.8l-0.5,3.3h-6.3l0-6.9
				c1.5-1,3.3-1.9,5.3-2.6c2-0.7,4.1-1.1,6.5-1.1c3.8,0,7,0.9,9.4,2.8c2.4,1.9,3.6,4.6,3.6,8v12.8c0,0.5,0,0.9,0,1.3
				c0,0.4,0,0.8,0.1,1.2l2.6,0.3v5H1043.9z M1036.7,522.2c1.3,0,2.4-0.3,3.4-0.8c1-0.5,1.8-1.2,2.4-2v-4.7h-4.3
				c-1.8,0-3.1,0.4-4,1.2c-0.9,0.8-1.4,1.8-1.4,3c0,1.1,0.3,1.9,1,2.5C1034.5,521.9,1035.5,522.2,1036.7,522.2z"/>
			<path class="st1" d="M1076.6,524c-1,1.4-2.1,2.5-3.5,3.3c-1.3,0.7-2.8,1.1-4.5,1.1c-3.8,0-6.8-1.4-8.9-4.2
				c-2.1-2.8-3.2-6.5-3.2-11.1v-0.6c0-4.9,1.1-8.8,3.2-11.8s5.1-4.5,8.9-4.5c1.5,0,2.9,0.3,4.2,1c1.2,0.7,2.3,1.6,3.3,2.9V489
				l-4.5-0.9v-5h4.5h8.4v38.8l4,0.9v5h-11.3L1076.6,524z M1064.9,513.1c0,2.7,0.5,4.8,1.4,6.4c0.9,1.6,2.4,2.3,4.5,2.3
				c1.2,0,2.3-0.2,3.2-0.7c0.9-0.5,1.6-1.2,2.2-2.1v-13.2c-0.6-1-1.3-1.8-2.2-2.3c-0.9-0.5-1.9-0.8-3.1-0.8c-2,0-3.5,0.9-4.5,2.7
				c-0.9,1.8-1.4,4.2-1.4,7.1V513.1z"/>
			<path class="st1" d="M1116.4,507.4h-5.6l-0.9-3.9c-0.6-0.5-1.3-0.8-2.2-1.1c-0.9-0.3-1.8-0.5-2.9-0.5c-1.5,0-2.6,0.3-3.5,1
				c-0.9,0.7-1.3,1.5-1.3,2.5c0,0.9,0.4,1.7,1.2,2.3c0.8,0.6,2.5,1.2,4.9,1.6c3.8,0.8,6.7,1.9,8.5,3.4s2.8,3.5,2.8,6.1
				c0,2.8-1.2,5.1-3.6,6.8c-2.4,1.8-5.6,2.7-9.5,2.7c-2.4,0-4.6-0.3-6.6-1c-2-0.7-3.8-1.7-5.3-3l-0.1-7h5.8l1.1,4
				c0.5,0.4,1.2,0.7,2,0.9c0.9,0.2,1.8,0.3,2.7,0.3c1.7,0,3-0.3,3.9-0.9c0.9-0.6,1.3-1.4,1.3-2.5c0-0.9-0.4-1.7-1.3-2.4
				c-0.9-0.7-2.6-1.3-5-1.8c-3.6-0.7-6.4-1.8-8.3-3.3c-1.9-1.5-2.8-3.5-2.8-6c0-2.6,1.1-4.8,3.2-6.7c2.1-1.9,5.2-2.8,9.1-2.8
				c2.4,0,4.7,0.3,6.8,1c2.1,0.6,3.8,1.5,5.1,2.5L1116.4,507.4z"/>
			<path class="st1" d="M815.1,583.5l4-0.9v-19.2l-4.5-0.9v-5h12.8v25.1l4,0.9v5h-16.4V583.5z M827.5,550h-8.4v-6.3h8.4V550z"/>
			<path class="st1" d="M833.8,583.5l4-0.9v-19.2l-4.4-0.9v-5h12.2l0.4,4.4c1-1.6,2.3-2.8,3.8-3.7c1.5-0.9,3.2-1.3,5.1-1.3
				c3.1,0,5.6,1,7.3,3c1.8,2,2.6,5.1,2.6,9.3v13.5l4,0.9v5h-16v-5l3.6-0.9v-13.5c0-2.1-0.4-3.6-1.3-4.4c-0.8-0.9-2.1-1.3-3.8-1.3
				c-1.1,0-2.1,0.2-3,0.7c-0.9,0.4-1.6,1.1-2.2,1.9v16.6l3.4,0.9v5h-15.8V583.5z"/>
			<path class="st1" d="M871.9,583.5l4-0.9v-19.3h-4.6v-5.9h4.6V554c0-3.5,1-6.2,3-8c2-1.9,4.8-2.8,8.5-2.8c0.7,0,1.4,0.1,2.2,0.2
				c0.7,0.1,1.5,0.3,2.4,0.4l-0.7,6.2c-0.5-0.1-0.9-0.1-1.3-0.2c-0.4-0.1-0.9-0.1-1.5-0.1c-1.4,0-2.4,0.4-3.1,1.1
				c-0.7,0.7-1,1.8-1,3.2v3.4h6.2v5.9h-6.2v19.3l4,0.9v5h-16.4V583.5z"/>
			<path class="st1" d="M893.3,572.7c0-4.6,1.3-8.4,3.9-11.4c2.6-3,6.2-4.4,10.7-4.4c4.6,0,8.2,1.5,10.8,4.4
				c2.6,2.9,3.9,6.7,3.9,11.4v0.6c0,4.7-1.3,8.5-3.9,11.4c-2.6,2.9-6.2,4.4-10.7,4.4c-4.6,0-8.2-1.5-10.8-4.4
				c-2.6-2.9-3.9-6.7-3.9-11.4V572.7z M901.7,573.3c0,2.8,0.5,5.1,1.5,6.8c1,1.7,2.6,2.6,4.8,2.6c2.2,0,3.7-0.9,4.7-2.6
				c1-1.7,1.5-4,1.5-6.8v-0.6c0-2.8-0.5-5-1.5-6.7c-1-1.7-2.6-2.6-4.8-2.6c-2.2,0-3.8,0.9-4.8,2.6c-1,1.7-1.5,4-1.5,6.7V573.3z"/>
			<path class="st1" d="M926.8,583.5l4-0.9v-19.2l-4.4-0.9v-5h12.2l0.4,4.5c0.7-1.6,1.7-2.9,2.8-3.8c1.1-0.9,2.5-1.3,4-1.3
				c0.4,0,0.9,0,1.4,0.1c0.5,0.1,0.9,0.1,1.2,0.2l-0.9,7.6l-3.4-0.1c-1.2,0-2.2,0.2-3,0.7c-0.8,0.5-1.4,1.2-1.8,2v15.1l4,0.9v5
				h-16.4V583.5z"/>
			<path class="st1" d="M949.9,562.5v-5h12.2l0.3,4.1c1-1.5,2.2-2.6,3.7-3.5c1.5-0.8,3.2-1.2,5.2-1.2c2,0,3.7,0.4,5.1,1.3
				c1.4,0.9,2.5,2.2,3.2,4c1-1.7,2.2-3,3.7-3.9c1.5-0.9,3.3-1.4,5.4-1.4c3.1,0,5.5,1.1,7.2,3.2c1.8,2.1,2.7,5.3,2.7,9.6v12.9l4,0.9
				v5h-16v-5l3.6-0.9v-12.9c0-2.3-0.4-4-1.1-4.9c-0.8-0.9-1.9-1.4-3.4-1.4c-1.2,0-2.2,0.3-3.1,0.8c-0.9,0.5-1.6,1.3-2.1,2.2
				c0,0.4,0,0.7,0,0.9c0,0.3,0,0.5,0,0.8v14.5l3.4,0.9v5H969v-5l3.4-0.9v-12.9c0-2.3-0.4-3.9-1.1-4.9c-0.8-0.9-1.9-1.4-3.4-1.4
				c-1.1,0-2.1,0.2-3,0.6c-0.9,0.4-1.6,1-2.1,1.8v16.7l3.6,0.9v5h-16v-5l4-0.9v-19.2L949.9,562.5z"/>
			<path class="st1" d="M1025.2,588.5c-0.2-0.5-0.4-1-0.6-1.6c-0.2-0.5-0.3-1.1-0.4-1.6c-1,1.1-2.2,2.1-3.6,2.8
				c-1.4,0.7-3.1,1.1-4.9,1.1c-3,0-5.4-0.8-7.2-2.5c-1.8-1.7-2.7-3.9-2.7-6.7c0-2.9,1.2-5.1,3.5-6.7c2.3-1.6,5.7-2.4,10.3-2.4h4.3
				v-3c0-1.5-0.4-2.6-1.3-3.5c-0.9-0.8-2.1-1.2-3.8-1.2c-1,0-1.8,0.1-2.6,0.3c-0.7,0.2-1.3,0.5-1.8,0.8l-0.5,3.3h-6.3l0-6.9
				c1.5-1,3.3-1.9,5.3-2.6c2-0.7,4.1-1.1,6.5-1.1c3.8,0,7,0.9,9.4,2.8c2.4,1.9,3.6,4.6,3.6,8v12.8c0,0.5,0,0.9,0,1.3
				c0,0.4,0,0.8,0.1,1.2l2.6,0.3v5H1025.2z M1018,582.9c1.3,0,2.4-0.3,3.4-0.8c1-0.5,1.8-1.2,2.4-2v-4.7h-4.3c-1.8,0-3.1,0.4-4,1.2
				c-0.9,0.8-1.4,1.8-1.4,3c0,1.1,0.3,1.9,1,2.5C1015.8,582.6,1016.8,582.9,1018,582.9z"/>
			<path class="st1" d="M1047.8,549.9v7.6h5.4v5.9h-5.4v15.8c0,1.2,0.2,2.1,0.7,2.6c0.5,0.5,1.2,0.8,2,0.8c0.6,0,1.1,0,1.5-0.1
				c0.4,0,0.9-0.1,1.4-0.2l0.7,6c-0.9,0.3-1.9,0.5-2.8,0.6c-0.9,0.1-1.9,0.2-3,0.2c-2.9,0-5.1-0.8-6.7-2.4c-1.6-1.6-2.3-4.1-2.3-7.5
				v-15.8h-4.6v-5.9h4.6v-7.6H1047.8z"/>
			<path class="st1" d="M1057.1,583.5l4-0.9v-19.2l-4.5-0.9v-5h12.8v25.1l4,0.9v5h-16.4V583.5z M1069.5,550h-8.4v-6.3h8.4V550z"/>
			<path class="st1" d="M1076.2,572.7c0-4.6,1.3-8.4,3.9-11.4c2.6-3,6.2-4.4,10.7-4.4c4.6,0,8.2,1.5,10.8,4.4
				c2.6,2.9,3.9,6.7,3.9,11.4v0.6c0,4.7-1.3,8.5-3.9,11.4c-2.6,2.9-6.2,4.4-10.7,4.4c-4.6,0-8.2-1.5-10.8-4.4
				c-2.6-2.9-3.9-6.7-3.9-11.4V572.7z M1084.6,573.3c0,2.8,0.5,5.1,1.5,6.8c1,1.7,2.6,2.6,4.8,2.6c2.2,0,3.7-0.9,4.7-2.6
				c1-1.7,1.5-4,1.5-6.8v-0.6c0-2.8-0.5-5-1.5-6.7c-1-1.7-2.6-2.6-4.8-2.6c-2.2,0-3.8,0.9-4.8,2.6c-1,1.7-1.5,4-1.5,6.7V573.3z"/>
			<path class="st1" d="M1108.7,583.5l4-0.9v-19.2l-4.4-0.9v-5h12.2l0.4,4.4c1-1.6,2.3-2.8,3.8-3.7c1.5-0.9,3.2-1.3,5.1-1.3
				c3.1,0,5.6,1,7.3,3c1.8,2,2.6,5.1,2.6,9.3v13.5l4,0.9v5h-16v-5l3.6-0.9v-13.5c0-2.1-0.4-3.6-1.3-4.4c-0.8-0.9-2.1-1.3-3.8-1.3
				c-1.1,0-2.1,0.2-3,0.7c-0.9,0.4-1.6,1.1-2.2,1.9v16.6l3.4,0.9v5h-15.8V583.5z"/>
		</g>
	</g>
	<line class="st2" x1="776.3" y1="470.2" x2="776.3" y2="609.8"/>
</g>
<g>
	<g>
		<path class="st3" d="M1942,1096c-7.4,0-13.6-5.9-13.8-13.4c-0.2-7.6,5.7-14,13.4-14.3c7.6-0.3,14.1,5.6,14.4,13.2
			c0.3,7.6-5.6,14.1-13.2,14.4l-0.3,0C1942.4,1095.9,1942.2,1096,1942,1096z M1897.8,1095.8c-0.2,0-0.4,0-0.6,0l-0.2,0
			c-7.6-0.3-13.6-6.8-13.2-14.4c0.3-7.6,6.8-13.6,14.4-13.2l0.2,0c7.6,0.3,13.6,6.8,13.3,14.4
			C1911.3,1090,1905.2,1095.8,1897.8,1095.8z M1986.3,1092.4c-6.9,0-12.9-5.1-13.7-12.1c-1-7.6,4.4-14.5,12-15.5l0.3,0
			c7.6-0.9,14.5,4.5,15.4,12.1c0.9,7.6-4.5,14.5-12.1,15.4l-0.1,0C1987.5,1092.4,1986.9,1092.4,1986.3,1092.4z M1853.6,1092.1
			c-0.6,0-1.2,0-1.8-0.1l1.8-13.7l-1.8,13.7c-7.6-0.9-13-7.8-12.1-15.4c0.9-7.6,7.8-13,15.4-12.1l0.3,0c7.6,1,12.9,7.9,11.9,15.5
			C1866.4,1087,1860.4,1092.1,1853.6,1092.1z M2030.1,1085.3c-6.4,0-12.2-4.5-13.5-11c-1.6-7.5,3.2-14.8,10.7-16.4l0.2,0
			c7.5-1.6,14.8,3.3,16.4,10.8c1.5,7.5-3.3,14.8-10.8,16.4l-0.1,0C2032,1085.2,2031,1085.3,2030.1,1085.3z M1809.8,1084.8
			c-0.9,0-1.9-0.1-2.8-0.3l-0.4-0.1c-7.5-1.7-12.2-9.1-10.5-16.5c1.7-7.5,9.1-12.2,16.5-10.5c7.5,1.5,12.3,8.9,10.7,16.4
			C1822,1080.3,1816.2,1084.8,1809.8,1084.8z M2073.2,1074.5c-6,0-11.5-3.9-13.3-9.9c-2.2-7.3,2-15,9.3-17.2l0.3-0.1
			c7.4-2.1,15,2.1,17.2,9.5c2.1,7.3-2.1,15-9.5,17.2l-3.8-13.3l3.8,13.3C2075.9,1074.4,2074.5,1074.5,2073.2,1074.5z M1766.8,1073.9
			c-1.3,0-2.7-0.2-4-0.6l-0.1,0c-7.3-2.2-11.5-9.9-9.4-17.2c2.2-7.3,9.9-11.5,17.2-9.4l0.2,0.1c7.3,2.2,11.5,9.9,9.3,17.2
			C1778.2,1070,1772.7,1073.9,1766.8,1073.9z M2115.2,1060.4c-5.5,0-10.7-3.3-12.9-8.8c-2.8-7.1,0.7-15.2,7.8-18l0.4-0.1
			c0,0,0.1,0,0.1-0.1c0,0,0.1,0,0.1,0l0.4-0.1c7.2-2.7,15.1,0.9,17.8,8.1c2.7,7.2-0.9,15.1-8.1,17.8l0,0c0,0,0,0,0,0l0,0
			c-0.1,0-0.2,0.1-0.3,0.1c-0.1,0-0.2,0.1-0.3,0.1l0,0c0,0,0,0,0,0l0,0C2118.6,1060.1,2116.9,1060.4,2115.2,1060.4z M1724.7,1059.5
			c-1.7,0-3.3-0.3-5-0.9l-0.1,0c-7.1-2.7-10.7-10.8-8-17.9c2.7-7.1,10.8-10.7,17.9-8l0.2,0.1c7.1,2.8,10.7,10.8,7.9,17.9
			C1735.6,1056.2,1730.3,1059.5,1724.7,1059.5z M2156.7,1042.6c-5.1,0-10.1-2.9-12.5-7.8c-3.3-6.9-0.5-15.1,6.4-18.5l0.3-0.1
			c6.9-3.3,15.2-0.4,18.5,6.6c3.3,6.9,0.4,15.2-6.6,18.5l-6-12.5l5.9,12.5C2160.8,1042.2,2158.7,1042.6,2156.7,1042.6z M1684,1041.8
			c-2,0-4.1-0.5-6.1-1.4l6.1-12.4l-6.1,12.4c-6.9-3.3-9.8-11.6-6.5-18.5c3.3-6.9,11.5-9.8,18.4-6.5l0.3,0.1
			c6.9,3.4,9.7,11.6,6.4,18.5C1694.1,1039,1689.2,1041.8,1684,1041.8z M2195.9,1021.9c-4.8,0-9.5-2.5-12-7
			c-3.8-6.6-1.5-15.1,5.1-18.9c6.6-3.9,15.1-1.7,19,4.9c3.9,6.6,1.7,15.1-4.9,19l-0.3,0.2
			C2200.6,1021.3,2198.2,1021.9,2195.9,1021.9z M1644.9,1020.9c-2.4,0-4.8-0.6-7-1.9l-0.1-0.1c-6.6-3.9-8.8-12.3-5-19
			c3.9-6.6,12.4-8.8,19-5l0.2,0.1c6.6,3.9,8.8,12.4,4.9,19C1654.3,1018.5,1649.7,1020.9,1644.9,1020.9z M2233.3,997.9
			c-4.4,0-8.7-2.1-11.4-6c-4.4-6.3-2.8-14.9,3.5-19.3c6.3-4.4,15-2.9,19.3,3.4c4.4,6.3,2.9,14.9-3.4,19.3l-0.2,0.1
			C2238.7,997.1,2236,997.9,2233.3,997.9z M1607.6,996.9c-2.8,0-5.6-0.8-8-2.6l8-11.3l-8.1,11.3c-6.2-4.4-7.8-13-3.4-19.3
			c4.4-6.3,13-7.8,19.2-3.4l0.2,0.2c6.2,4.4,7.7,13.1,3.3,19.3C1616.2,994.8,1611.9,996.9,1607.6,996.9z M2268.6,971
			c-3.9,0-7.8-1.6-10.5-4.8c-5-5.8-4.3-14.6,1.5-19.5l0.4-0.3c5.9-4.8,14.6-4,19.5,1.9c4.8,5.9,4,14.6-1.9,19.5
			C2274.9,970,2271.7,971,2268.6,971z M2270.5,959.3l0.2,0.3l-2-2.5L2270.5,959.3z M1572.3,969.9c-3.1,0-6.2-1-8.8-3.2l-0.2-0.2
			c-5.8-4.9-6.6-13.7-1.7-19.5c4.9-5.8,13.7-6.6,19.5-1.7c5.9,4.9,6.7,13.7,1.8,19.5C1580.3,968.2,1576.3,969.9,1572.3,969.9z
			 M2301.5,941.4c-3.7,0-7.3-1.4-10-4.3c-5.3-5.5-5.1-14.3,0.4-19.6c5.4-5.4,14.2-5.3,19.6,0.2c5.4,5.5,5.3,14.2-0.2,19.6l-0.3,0.3
			C2308.4,940.1,2305,941.4,2301.5,941.4z M1539.5,940.1c-3.5,0-7-1.3-9.7-4l0,0c-5.5-5.3-5.6-14.1-0.3-19.6
			c5.3-5.5,14.1-5.6,19.6-0.3l0.2,0.2c5.5,5.4,5.5,14.1,0.1,19.6C1546.6,938.7,1543.1,940.1,1539.5,940.1z M2331.9,909.1
			c-3.2,0-6.5-1.1-9.1-3.4c-5.8-5-6.4-13.8-1.3-19.5c5-5.8,13.7-6.5,19.5-1.5c5.8,5,6.5,13.7,1.5,19.5l-0.2,0.2
			C2339.6,907.4,2335.8,909.1,2331.9,909.1z M1509.1,907.7c-3.9,0-7.8-1.6-10.5-4.8l10.5-9l-10.6,9c-5-5.8-4.4-14.5,1.4-19.5
			c5.8-5,14.5-4.4,19.5,1.3l0.2,0.2c5,5.8,4.3,14.6-1.5,19.5C1515.5,906.6,1512.3,907.7,1509.1,907.7z M2359.6,874.4
			c-2.8,0-5.7-0.9-8.1-2.6c-6.2-4.5-7.6-13.2-3.1-19.4l0.2-0.3c4.6-6.1,13.3-7.4,19.4-2.8s7.4,13.3,2.8,19.4l-11.1-8.3l11.1,8.3
			C2368.1,872.4,2363.9,874.4,2359.6,874.4z M1481.6,873c-4.3,0-8.5-2-11.3-5.8l11.2-8.1l-11.3,8.1c-4.5-6.2-3.1-14.8,3-19.3
			c6.2-4.5,14.8-3.2,19.3,2.9l0.2,0.3c4.5,6.2,3.1,14.9-3.1,19.3C1487.2,872.1,1484.4,873,1481.6,873z M2384.4,837.6
			c-2.5,0-5-0.7-7.3-2.1c-6.5-4.1-8.5-12.6-4.4-19.1c4-6.5,12.5-8.6,19-4.6c6.5,4,8.6,12.5,4.6,19l-0.2,0.3
			C2393.5,835.2,2389,837.6,2384.4,837.6z M1456.9,836.1c-4.7,0-9.3-2.4-11.9-6.7c-4-6.5-2.1-14.9,4.4-19c6.5-4.1,15-2.2,19.1,4.3
			l0.3,0.4c3.9,6.6,1.8,15.1-4.8,19C1461.8,835.4,1459.3,836.1,1456.9,836.1z M1456.9,822.2l-11.9,7.1l0,0L1456.9,822.2z
			 M2406.1,798.8c-2.1,0-4.2-0.5-6.2-1.5c-6.8-3.4-9.6-11.7-6.2-18.6l0.1-0.2c3.5-6.8,11.8-9.6,18.6-6.1c6.8,3.5,9.6,11.8,6.1,18.6
			l0,0.1C2416.1,796,2411.2,798.8,2406.1,798.8z M1435.3,797.2c-5,0-9.9-2.8-12.3-7.6l-0.1-0.2c-3.4-6.8-0.6-15.2,6.2-18.6
			c6.8-3.4,15.2-0.6,18.6,6.2c3.5,6.8,0.7,15.2-6.1,18.7C1439.6,796.7,1437.4,797.2,1435.3,797.2z M2424.6,758.5c-1.7,0-3.4-0.3-5-1
			c-7.1-2.8-10.6-10.8-7.9-17.9l0.2-0.5c3-7.1,11.1-10.4,18.1-7.4c7,2.9,10.4,11,7.4,18.1C2435.3,755.2,2430.1,758.5,2424.6,758.5z
			 M2424.6,744.5l12.8,5.4l0,0L2424.6,744.5z M1417.1,756.9c-5.4,0-10.6-3.2-12.8-8.5c0,0-0.1-0.2-0.1-0.2
			c-2.9-7.1,0.5-15.2,7.6-18.1c7.1-2.9,15.1,0.4,18,7.5c0,0,0.1,0.1,0.1,0.2c3,7.1-0.4,15.1-7.4,18.1
			C1420.6,756.5,1418.8,756.9,1417.1,756.9z M2439.8,716.8c-1.4,0-2.8-0.2-4.2-0.6c-7.3-2.3-11.4-10.1-9.1-17.4l0-0.2
			c2.3-7.3,10.1-11.4,17.4-9.1c7.3,2.3,11.4,10.1,9.1,17.4l0,0.2C2451.1,713,2445.6,716.8,2439.8,716.8z M1402,715.1
			c-5.9,0-11.3-3.8-13.2-9.7l-0.1-0.2c-2.3-7.3,1.8-15.1,9.1-17.3c7.3-2.3,15.1,1.8,17.3,9.1l0,0.1c2.3,7.3-1.8,15.1-9.1,17.4
			C1404.8,714.9,1403.4,715.1,1402,715.1z M2451.5,674c-1.1,0-2.2-0.1-3.3-0.4c-7.4-1.8-12-9.2-10.2-16.6c1.7-7.4,9-12.2,16.5-10.5
			c7.5,1.6,12.2,9,10.5,16.5l-0.1,0.4C2463.4,669.7,2457.7,674,2451.5,674z M1390.4,672.2c-6.4,0-12.1-4.4-13.5-10.9l13.5-3
			l-13.5,2.9c-1.8-7.4,2.8-14.9,10.3-16.6c7.4-1.8,14.9,2.9,16.7,10.3l0.1,0.4c1.6,7.5-3.1,14.9-10.6,16.5
			C1392.4,672.1,1391.4,672.2,1390.4,672.2z M2459.7,630.3c-0.6,0-1.2,0-1.8-0.1c-7.6-1-12.9-7.9-11.9-15.5l0.1-0.4
			c1.1-7.6,8.2-12.8,15.8-11.6c7.6,1.1,12.8,8.2,11.6,15.8C2472.5,625.3,2466.5,630.3,2459.7,630.3z M2463.5,616.9l0.6,0.1l-4.3-0.7
			L2463.5,616.9z M1382.3,628.6c-6.7,0-12.6-4.9-13.7-11.8l-0.1-0.4c-1-7.6,4.4-14.5,11.9-15.5c7.6-1,14.5,4.3,15.5,11.8
			c1.1,7.5-4.1,14.6-11.7,15.7C1383.7,628.5,1383,628.6,1382.3,628.6z M2464.3,586.2c-0.3,0-0.6,0-0.9,0
			c-7.6-0.5-13.4-7.1-12.9-14.7l0-0.2c0.5-7.6,7.1-13.4,14.7-12.9c7.6,0.5,13.4,7.1,12.9,14.7l0,0.2
			C2477.7,580.6,2471.6,586.2,2464.3,586.2z M1377.8,584.4c-7.2,0-13.3-5.6-13.8-12.9l0-0.5c-0.3-7.6,5.6-14.1,13.3-14.4
			c7.6-0.3,14.1,5.6,14.4,13.2c0.4,7.6-5.3,14.2-12.9,14.6C1378.4,584.4,1378.1,584.4,1377.8,584.4z M2465.3,541.8
			c-7.5,0-13.7-6-13.8-13.6l0-0.2c-0.2-7.6,5.9-14,13.6-14.1c7.6-0.2,14,5.9,14.1,13.6l0,0.2c0.2,7.6-5.9,14-13.6,14.1
			C2465.5,541.8,2465.4,541.8,2465.3,541.8z M1377,540c-0.1,0-0.2,0-0.3,0c-7.6-0.2-13.7-6.5-13.6-14.1l0-0.2
			c0.2-7.6,6.5-13.7,14.1-13.6c7.6,0.2,13.7,6.5,13.6,14.1l0,0.2C1390.7,534,1384.5,540,1377,540z M2462.6,497.5
			c-7.1,0-13.1-5.4-13.8-12.6c-0.8-7.6,4.7-14.4,12.3-15.2c7.6-0.8,14.4,4.7,15.2,12.3l0,0.5c0.7,7.6-5,14.3-12.6,15
			C2463.4,497.5,2463,497.5,2462.6,497.5z M1379.9,495.7c-0.5,0-1,0-1.5-0.1c-7.6-0.8-13.1-7.6-12.3-15.3l0-0.2
			c0.8-7.6,7.6-13.1,15.3-12.3c7.6,0.8,13.1,7.6,12.3,15.3l0,0.2C1392.9,490.4,1386.9,495.7,1379.9,495.7z M2456.3,453.6
			c-6.6,0-12.4-4.7-13.6-11.4c-1.4-7.5,3.5-14.7,11-16.2c7.5-1.5,14.8,3.4,16.2,10.9l0.1,0.4c1.3,7.5-3.7,14.7-11.3,16
			C2457.9,453.5,2457.1,453.6,2456.3,453.6z M1386.3,451.8c-0.9,0-1.8-0.1-2.7-0.3c-7.5-1.5-12.4-8.7-10.9-16.2
			c1.4-7.5,8.5-12.5,16-11.2c7.5,1.3,12.6,8.5,11.3,16l-0.1,0.4C1398.6,447.2,1392.8,451.8,1386.3,451.8z M1382.6,437.2l3.6,0.7
			L1382.6,437.2z M2446.5,410.3c-6,0-11.6-4-13.4-10.1l-0.1-0.4c-2-7.4,2.4-15,9.8-17c7.4-2,15,2.4,17,9.8l-13.4,3.6l13.4-3.5
			c2.1,7.4-2.2,15-9.5,17.1C2449,410.1,2447.8,410.3,2446.5,410.3z M1396.3,408.5c-1.2,0-2.4-0.2-3.6-0.5c-7.4-2-11.8-9.5-9.8-16.9
			l0.1-0.4c2.1-7.3,9.8-11.6,17.2-9.5c7.3,2.1,11.6,9.7,9.5,17.1C1408,404.4,1402.4,408.5,1396.3,408.5z M2433.1,367.9
			c-5.7,0-11-3.5-13-9.1l-0.1-0.2c-2.6-7.2,1.1-15.1,8.3-17.8c7.2-2.6,15.1,1.1,17.8,8.3l0.1,0.2c2.6,7.2-1.1,15.1-8.3,17.8
			C2436.3,367.7,2434.7,367.9,2433.1,367.9z M1409.7,366.2c-1.6,0-3.1-0.3-4.7-0.8c-7.2-2.6-10.9-10.5-8.3-17.7l0.1-0.2
			c2.6-7.2,10.6-10.9,17.8-8.2c7.2,2.6,10.9,10.6,8.2,17.8C1420.8,362.7,1415.4,366.2,1409.7,366.2z M2416.4,326.8
			c-5.2,0-10.2-2.9-12.5-8l-0.2-0.4c-3.1-7,0-15.2,7-18.3c7-3.1,15.2,0,18.3,7c3.2,6.9,0.2,15.1-6.7,18.4
			C2420.4,326.4,2418.4,326.8,2416.4,326.8z M2420.4,311l-4,1.8L2420.4,311z M1426.6,325.2c-1.9,0-3.8-0.4-5.6-1.2
			c-7-3.1-10.1-11.3-7-18.3l0.2-0.5c3.3-6.9,11.6-9.8,18.5-6.6c6.9,3.3,9.8,11.5,6.6,18.4C1436.9,322.1,1431.9,325.2,1426.6,325.2z
			 M2396.5,287.2c-4.9,0-9.7-2.6-12.2-7.2c-3.7-6.7-1.4-15.1,5.3-18.8c6.7-3.7,15.1-1.4,18.9,5.3l0.2,0.3c3.7,6.7,1.2,15.1-5.6,18.8
			C2401,286.6,2398.7,287.2,2396.5,287.2z M1446.7,285.6c-2.3,0-4.7-0.6-6.8-1.8c-6.6-3.8-9-12.2-5.2-18.9c3.7-6.6,12-9.1,18.7-5.5
			c6.7,3.6,9.3,12,5.7,18.8l-0.2,0.4C1456.2,283.1,1451.5,285.6,1446.7,285.6z M1434.7,264.9l12,6.8L1434.7,264.9L1434.7,264.9z
			 M2373.4,249.3c-4.4,0-8.8-2.1-11.5-6.1l-0.1-0.2c-4.2-6.4-2.5-15,3.8-19.2c6.4-4.2,15-2.5,19.2,3.8l0,0.1
			c4.3,6.3,2.6,15-3.7,19.2C2378.7,248.5,2376,249.3,2373.4,249.3z M1470,247.8c-2.7,0-5.4-0.8-7.7-2.4c-6.3-4.3-8-12.9-3.7-19.2
			l0-0.1c4.2-6.4,12.8-8.1,19.2-3.8c6.4,4.2,8.1,12.8,3.8,19.2l-0.1,0.2C1478.8,245.7,1474.4,247.8,1470,247.8z M2347.2,213.4
			c-4,0-8-1.8-10.8-5.2l-0.2-0.2c-4.8-6-3.8-14.7,2.2-19.5c6-4.8,14.7-3.8,19.5,2.2l0,0.1c4.8,6,3.8,14.7-2.1,19.5
			C2353.3,212.4,2350.2,213.4,2347.2,213.4z M1496.3,212c-3,0-6.1-1-8.6-3c-6-4.8-7-13.4-2.2-19.4l0.2-0.2c4.8-6,13.5-6.9,19.5-2.1
			c6,4.8,6.9,13.5,2.1,19.5C1504.4,210.2,1500.4,212,1496.3,212z M2318.2,179.9c-3.7,0-7.4-1.5-10.2-4.4c-5.2-5.6-5-14.4,0.6-19.6
			c5.6-5.2,14.3-5,19.6,0.6l0.2,0.2c5.2,5.6,4.9,14.4-0.8,19.6C2324.9,178.6,2321.6,179.9,2318.2,179.9z M1525.4,178.5
			c-3.4,0-6.8-1.2-9.5-3.8c-5.6-5.2-5.9-14-0.6-19.6l0.2-0.2c5.3-5.5,14.1-5.7,19.6-0.4c5.5,5.3,5.7,14.1,0.4,19.6
			C1532.7,177.1,1529.1,178.5,1525.4,178.5z M2286.5,148.8c-3.3,0-6.7-1.2-9.3-3.6c-5.7-5.1-6.2-13.8-1.1-19.5
			c5.1-5.7,13.8-6.3,19.5-1.2l0.4,0.3c5.6,5.2,5.9,14,0.7,19.6C2294,147.3,2290.2,148.8,2286.5,148.8z M1557.1,147.5
			c-3.8,0-7.6-1.6-10.4-4.7c-5.1-5.7-4.5-14.5,1.2-19.5c5.6-5.1,14.3-4.7,19.5,0.8c5.2,5.6,4.9,14.4-0.7,19.6l-0.4,0.3
			C1563.6,146.4,1560.3,147.5,1557.1,147.5z M1547.9,123.3l9.2,10.4L1547.9,123.3L1547.9,123.3z M2252.4,120.4
			c-2.9,0-5.8-0.9-8.3-2.8l-0.2-0.2c-6.1-4.7-7.2-13.4-2.5-19.4c4.7-6.1,13.4-7.2,19.4-2.5l-8.5,11l8.5-10.9
			c6.1,4.6,7.3,13.3,2.6,19.4C2260.7,118.5,2256.6,120.4,2252.4,120.4z M1591.3,119.2c-4.2,0-8.3-1.9-11.1-5.5
			c-4.6-6.1-3.4-14.8,2.7-19.4l8.4,11l-8.3-11.1c6.1-4.6,14.8-3.5,19.4,2.6c4.6,6.1,3.5,14.7-2.5,19.4l-0.2,0.2
			C1597.1,118.3,1594.2,119.2,1591.3,119.2z M2216.1,94.9c-2.5,0-5.1-0.7-7.4-2.2l-0.2-0.1c-6.4-4.1-8.3-12.7-4.2-19.1
			c4.1-6.4,12.7-8.3,19.1-4.2l0.1,0.1c6.5,4.1,8.3,12.7,4.2,19.1C2225.2,92.6,2220.7,94.9,2216.1,94.9z M1627.7,93.8
			c-4.6,0-9-2.3-11.7-6.4c-4.1-6.4-2.3-15,4.2-19.1l0.2-0.1c6.5-4.1,15-2.2,19.1,4.2c4.1,6.5,2.2,15-4.2,19.1l-0.1,0.1
			C1632.8,93.1,1630.2,93.8,1627.7,93.8z M2177.9,72.4c-2.2,0-4.5-0.5-6.5-1.6l-0.1-0.1c-6.7-3.6-9.3-12-5.7-18.8
			c3.6-6.7,12-9.3,18.8-5.7l0.1,0.1c6.7,3.6,9.3,12,5.7,18.8C2187.6,69.7,2182.8,72.4,2177.9,72.4z M1666,71.4
			c-4.9,0-9.7-2.6-12.2-7.3c-3.6-6.7-1.1-15.1,5.6-18.7l0.4-0.2c6.8-3.5,15.2-0.8,18.6,6c3.5,6.8,0.8,15.1-5.9,18.6
			C1670.4,70.9,1668.2,71.4,1666,71.4z M2137.9,53c-1.9,0-3.8-0.4-5.6-1.2c-7-3-10.3-11.2-7.3-18.2c3-7,11.1-10.3,18.2-7.3l0.3,0.1
			c7,3.1,10.2,11.3,7.1,18.3C2148.3,50,2143.2,53,2137.9,53z M1706,52.3c-5.4,0-10.5-3.1-12.7-8.4c-3-7,0.2-15.2,7.2-18.2l0.2-0.1
			c7-3,15.2,0.2,18.2,7.3c3,7-0.2,15.2-7.3,18.2l-0.1,0.1C1709.7,52,1707.8,52.3,1706,52.3z M2096.5,37c-1.5,0-2.9-0.2-4.4-0.7
			l-0.2-0.1c-7.2-2.5-11.1-10.3-8.6-17.6c2.5-7.2,10.3-11.1,17.6-8.6l0.1,0c7.3,2.4,11.2,10.3,8.7,17.5
			C2107.7,33.3,2102.3,37,2096.5,37z M1747.5,36.4c-5.8,0-11.2-3.6-13.1-9.4c-2.5-7.2,1.4-15.1,8.6-17.6l0.2-0.1
			c7.3-2.4,15.1,1.5,17.5,8.8c2.4,7.3-1.5,15.1-8.8,17.5C1750.5,36.2,1749,36.4,1747.5,36.4z M2054,24.4c-1.1,0-2.2-0.1-3.4-0.4
			l-0.2-0.1c-7.4-1.9-11.9-9.4-10-16.8c1.9-7.4,9.4-11.9,16.9-10l0.1,0c7.4,1.9,11.9,9.4,10.1,16.8
			C2065.8,20.2,2060.2,24.4,2054,24.4z M1790,24c-6.2,0-11.8-4.2-13.4-10.4c-1.9-7.4,2.6-15,10-16.9l0.4-0.1
			c7.4-1.8,14.9,2.8,16.7,10.3c1.8,7.4-2.8,14.9-10.3,16.7C1792.3,23.8,1791.1,24,1790,24z M2010.5,15.3c-0.8,0-1.6-0.1-2.4-0.2
			c-7.6-1.2-12.7-8.4-11.5-15.9c1.2-7.5,8.3-12.7,15.9-11.4l0.3,0.1c7.5,1.3,12.6,8.5,11.3,16C2023,10.5,2017.1,15.3,2010.5,15.3z
			 M1833.5,15c-6.7,0-12.5-4.8-13.7-11.6c-1.2-7.6,3.9-14.7,11.4-15.9l0.2,0c7.6-1.2,14.7,3.9,15.9,11.4c1.2,7.6-3.9,14.7-11.4,15.9
			l-0.2,0C1835,14.9,1834.3,15,1833.5,15z M1966.5,9.8c-0.4,0-0.7,0-1.1,0l-0.3,0c-7.6-0.6-13.3-7.4-12.6-15
			c0.6-7.6,7.3-13.3,15-12.6l-1.2,13.8l1.2-13.8c7.6,0.6,13.3,7.3,12.7,14.9C1979.7,4.2,1973.6,9.8,1966.5,9.8z M1877.6,9.6
			c-7.1,0-13.2-5.5-13.8-12.7c-0.6-7.6,5-14.3,12.6-15l0.3,0c7.6-0.6,14.3,5.1,14.9,12.8c0.6,7.6-5.1,14.3-12.8,14.9
			C1878.4,9.6,1878,9.6,1877.6,9.6z M1922.1,7.8h-0.2c-7.7,0-13.9-6.2-13.9-13.9s6.2-13.9,13.9-13.9h0.2c7.6,0,13.9,6.2,13.9,13.9
			S1929.8,7.8,1922.1,7.8z"/>
	</g>
	<g>
		<path class="st3" d="M1909.9,1050.7c-0.1,0-0.2,0-0.3,0l-0.2,0c-7.6-0.2-13.7-6.5-13.5-14.1c0.2-7.5,6.3-13.6,13.8-13.6
			c0.1,0,0.2,0,0.3,0l0.2,0c7.6,0.2,13.7,6.5,13.6,14.1C1923.6,1044.7,1917.5,1050.7,1909.9,1050.7z M1953.9,1049.7
			c-7.2,0-13.3-5.6-13.8-12.9c-0.5-7.6,5.1-14.2,12.8-14.8l0.3,0c7.6-0.5,14.2,5.3,14.7,12.9c0.5,7.6-5.3,14.2-12.9,14.7l-0.9-13.8
			l0.9,13.8C1954.6,1049.7,1954.2,1049.7,1953.9,1049.7z M1865.9,1047.8c-0.5,0-1,0-1.5-0.1l-0.3,0c-7.6-0.9-13-7.8-12.1-15.4
			c0.9-7.6,7.8-13,15.4-12.1c7.6,0.8,13.1,7.7,12.3,15.3C1878.9,1042.5,1872.9,1047.8,1865.9,1047.8z M1997.8,1044.8
			c-6.7,0-12.6-4.9-13.7-11.7c-1.2-7.5,3.9-14.6,11.4-15.8l0.3,0c7.6-1.2,14.6,4,15.8,11.6c1.2,7.6-4,14.6-11.6,15.8l-2.1-13.7
			l2,13.7C1999.2,1044.7,1998.5,1044.8,1997.8,1044.8z M1822.4,1040.9c-0.9,0-1.8-0.1-2.7-0.3c0,0-0.2,0-0.2,0
			c-7.5-1.5-12.4-8.8-10.9-16.3c1.5-7.5,8.8-12.4,16.3-10.9l0.1,0c7.5,1.5,12.4,8.8,10.9,16.3
			C1834.6,1036.4,1828.8,1040.9,1822.4,1040.9z M2041,1036.1c-6.2,0-11.9-4.2-13.5-10.5c-1.9-7.4,2.6-14.9,10-16.8l0.3-0.1
			c0.1,0,0.2,0,0.2-0.1c0.1,0,0.1,0,0.2-0.1l0.3-0.1c7.4-1.8,14.9,2.7,16.7,10.2c1.8,7.4-2.7,14.9-10.2,16.7l0,0c0,0,0,0,0,0l0,0
			c-0.1,0-0.2,0.1-0.3,0.1c-0.1,0-0.3,0.1-0.4,0.1l0,0c0,0,0,0,0,0l0,0C2043.2,1035.9,2042.1,1036.1,2041,1036.1z M1779.6,1030.2
			c-1.3,0-2.6-0.2-3.9-0.5l-0.4-0.1c-7.3-2.2-11.4-10-9.2-17.3c2.2-7.3,10-11.4,17.3-9.2c7.4,2.1,11.6,9.8,9.4,17.1
			C1791.1,1026.3,1785.6,1030.2,1779.6,1030.2z M2084,1023.4c-5.7,0-11.1-3.6-13.1-9.3c-2.5-7.2,1.2-15.1,8.4-17.6l0.3-0.1
			c7.2-2.5,15.1,1.4,17.6,8.6c2.5,7.2-1.4,15.1-8.6,17.6l-4.5-13.1l4.4,13.1C2087.1,1023.1,2085.5,1023.4,2084,1023.4z
			 M1737.9,1015.8c-1.7,0-3.4-0.3-5.1-1l-0.3-0.1c-7.1-2.9-10.5-11-7.6-18.1c2.9-7.1,11-10.5,18.1-7.6c7.1,2.8,10.6,10.9,7.8,18
			C1748.6,1012.5,1743.4,1015.8,1737.9,1015.8z M2125,1007.2c-5.3,0-10.4-3.1-12.7-8.3c-3.1-7,0.1-15.2,7.1-18.3
			c7-3.2,15.2-0.1,18.3,6.9c3.2,7,0.1,15.2-6.9,18.3l-0.3,0.1C2128.8,1006.8,2126.9,1007.2,2125,1007.2z M1697.6,997.8
			c-2.1,0-4.3-0.5-6.3-1.5c-6.8-3.4-9.6-11.6-6.3-18.5c3.4-6.9,11.6-9.7,18.5-6.4l0.4,0.2c6.8,3.5,9.5,11.8,6,18.6
			C1707.5,995,1702.6,997.8,1697.6,997.8z M1695.9,987.3l-0.3,0.5l2-3.9L1695.9,987.3z M2164.4,987.4c-4.8,0-9.6-2.5-12.1-7.1
			c-3.7-6.7-1.4-15.1,5.3-18.9l0.1-0.1c6.7-3.8,15.1-1.4,18.9,5.3c3.8,6.7,1.4,15.1-5.3,18.9l-0.2,0.1
			C2169.1,986.9,2166.7,987.4,2164.4,987.4z M1659.1,976.3c-2.5,0-5.1-0.7-7.3-2.1c-6.5-4-8.6-12.4-4.7-18.9
			c3.9-6.6,12.4-8.7,19-4.8l0.4,0.2c6.5,4.1,8.4,12.6,4.4,19.1C1668.2,974,1663.7,976.3,1659.1,976.3z M1657.3,965.2l-0.2,0.4l2-3.2
			L1657.3,965.2z M2202,964.3c-4.4,0-8.8-2.1-11.4-6c-4.3-6.3-2.7-14.9,3.6-19.3l0.1-0.1c6.3-4.3,14.9-2.7,19.3,3.6
			c4.3,6.3,2.7,14.9-3.6,19.3l-0.1,0.1C2207.4,963.5,2204.7,964.3,2202,964.3z M1622.6,951.5c-2.9,0-5.8-0.9-8.2-2.7l-0.2-0.2
			c-6.1-4.6-7.3-13.3-2.7-19.4c4.6-6.1,13.3-7.3,19.4-2.7c6.1,4.6,7.4,13.3,2.9,19.4C1631,949.5,1626.8,951.5,1622.6,951.5z
			 M2237.3,937.8c-4,0-7.9-1.7-10.7-5c-4.9-5.9-4.1-14.6,1.8-19.5l0.2-0.2c5.9-4.8,14.6-4,19.5,1.9c4.8,5.9,4,14.6-1.9,19.5
			l-0.1,0.1C2243.5,936.8,2240.4,937.8,2237.3,937.8z M1588.5,923.6c-3.3,0-6.5-1.1-9.1-3.5l-0.2-0.2c-5.7-5.1-6.2-13.9-1.1-19.6
			c5.1-5.7,13.9-6.2,19.6-1.1c5.7,5.1,6.3,13.9,1.2,19.6C1596.1,922,1592.3,923.6,1588.5,923.6z M2270.1,908.4
			c-3.6,0-7.2-1.4-9.9-4.2c-5.3-5.5-5.2-14.3,0.3-19.6c5.5-5.4,14.2-5.3,19.6,0.1s5.3,14.2-0.1,19.6l-0.2,0.2
			C2277,907.1,2273.5,908.4,2270.1,908.4z M1556.9,892.7c-3.7,0-7.3-1.5-10.1-4.3l-0.2-0.2c-5.2-5.6-4.9-14.4,0.8-19.6
			c5.6-5.2,14.4-4.9,19.6,0.8c5.2,5.6,5,14.4-0.6,19.6C1563.7,891.5,1560.3,892.7,1556.9,892.7z M2300.1,876.1
			c-3.2,0-6.3-1.1-8.9-3.3c-5.8-4.9-6.6-13.7-1.6-19.5l0.2-0.2c5-5.8,13.7-6.5,19.5-1.5c5.8,5,6.5,13.7,1.5,19.5l0,0.1
			C2308,874.4,2304.1,876.1,2300.1,876.1z M1528.3,859.3c-4.2,0-8.3-1.9-11-5.4c-4.7-6-3.7-14.6,2.2-19.4c6-4.8,14.7-3.9,19.5,2.1
			l0.3,0.4c4.7,6.1,3.5,14.8-2.6,19.4C1534.2,858.3,1531.2,859.3,1528.3,859.3z M1528.3,845.4l-11,8.4l0,0L1528.3,845.4z
			 M2327.2,841.4c-2.8,0-5.6-0.8-8.1-2.6c-6.2-4.5-7.6-13.1-3.1-19.3c4.4-6.2,13.1-7.7,19.3-3.3c6.2,4.4,7.7,13,3.3,19.3l-0.1,0.2
			C2335.8,839.4,2331.6,841.4,2327.2,841.4z M1502.6,823.4c-4.5,0-8.9-2.2-11.6-6.3l-0.1-0.2c-4.1-6.4-2.3-15,4.2-19.1
			c6.4-4.1,15-2.3,19.1,4.2c4.2,6.4,2.4,15-4.1,19.2C1507.8,822.6,1505.2,823.4,1502.6,823.4z M2351.2,804.3c-2.4,0-4.9-0.6-7.1-2
			c-6.5-3.9-8.7-12.4-4.8-18.9c3.8-6.6,12.3-8.9,18.9-5.1c6.6,3.8,8.9,12.3,5.1,18.9l-0.2,0.4
			C2360.5,801.9,2355.9,804.3,2351.2,804.3z M1480.3,785.3c-4.9,0-9.7-2.6-12.2-7.3l-0.2-0.4c-3.5-6.8-0.8-15.2,6-18.6
			c6.8-3.5,15.1-0.8,18.6,5.9c3.6,6.7,1,15.1-5.7,18.7C1484.8,784.8,1482.5,785.3,1480.3,785.3z M2371.8,765.3c-2,0-4-0.4-5.9-1.3
			c-6.9-3.3-9.8-11.6-6.6-18.5l0.1-0.1c3.3-6.9,11.6-9.8,18.5-6.6c6.9,3.3,9.8,11.6,6.6,18.5l-0.1,0.1
			C2382,762.4,2377,765.3,2371.8,765.3z M1461.5,745.5c-5.4,0-10.6-3.2-12.8-8.5l0-0.1c-3-7,0.3-15.2,7.4-18.2
			c7-3,15.2,0.3,18.2,7.4l0.1,0.2c3,7.1-0.4,15.2-7.4,18.1C1465.1,745.1,1463.3,745.5,1461.5,745.5z M2389,724.7
			c-1.6,0-3.2-0.3-4.8-0.9c-7.2-2.6-10.9-10.6-8.2-17.8l0.1-0.2c2.6-7.2,10.6-10.9,17.8-8.2c7.2,2.6,10.9,10.6,8.2,17.8l-0.1,0.2
			C2399.9,721.2,2394.6,724.7,2389,724.7z M1446.2,704c-5.9,0-11.3-3.7-13.1-9.6l-0.1-0.2c-2.3-7.3,1.8-15.1,9.1-17.4
			c7.3-2.3,15.1,1.8,17.4,9.1c2.3,7.3-1.7,15.1-9,17.5C1449,703.8,1447.6,704,1446.2,704z M2402.4,682.7c-1.3,0-2.6-0.2-3.9-0.6
			c-7.3-2.1-11.5-9.8-9.4-17.1c2-7.3,9.6-11.7,16.9-9.8c7.4,2,11.8,9.5,9.8,16.9l-0.1,0.5C2413.9,678.8,2408.4,682.7,2402.4,682.7z
			 M1434.7,661.5c-6.4,0-12.1-4.4-13.5-10.8c-1.7-7.4,2.8-14.8,10.2-16.6c7.4-1.8,14.9,2.7,16.7,10.2l0.1,0.5
			c1.6,7.5-3.1,14.9-10.6,16.5C1436.7,661.4,1435.7,661.5,1434.7,661.5z M1434.7,647.7l-13.5,3l0,0L1434.7,647.7z M2412.1,639.7
			c-0.9,0-1.8-0.1-2.7-0.3c-7.5-1.5-12.3-8.7-10.9-16.2c1.4-7.5,8.5-12.5,16-11.2c7.5,1.3,12.6,8.5,11.3,16l-0.1,0.5
			C2424.4,635.1,2418.6,639.7,2412.1,639.7z M1426.9,618.1c-6.8,0-12.8-5.1-13.7-12c-1.1-7.5,4.1-14.5,11.6-15.7
			c7.6-1.2,14.6,4,15.8,11.6l0.1,0.5c1,7.6-4.4,14.5-11.9,15.5C1428.1,618.1,1427.5,618.1,1426.9,618.1z M1423.8,604.6l-0.4,0.1
			l3.5-0.5L1423.8,604.6z M2418,595.9c-0.4,0-0.8,0-1.2-0.1c-7.6-0.7-13.3-7.4-12.6-15l0-0.1c0.7-7.6,7.3-13.3,15-12.6
			c7.6,0.7,13.3,7.4,12.6,15l0,0.2C2431.1,590.5,2425.1,595.9,2418,595.9z M1422.9,574.2c-7.4,0-13.5-5.8-13.8-13.3l0-0.2
			c-0.3-7.6,5.6-14.1,13.2-14.4c7.6-0.3,14.1,5.6,14.4,13.2l0,0.2c0.3,7.6-5.6,14.1-13.2,14.4
			C1423.3,574.2,1423.1,574.2,1422.9,574.2z M2419.8,551.9c-7.7,0-13.9-6.2-13.9-13.9v-0.2c0-7.7,6.2-13.9,13.9-13.9
			c7.6,0,13.9,6.2,13.9,13.9v0.2C2433.7,545.7,2427.5,551.9,2419.8,551.9z M1422.9,530.1c-0.2,0-0.4,0-0.6,0
			c-7.6-0.3-13.6-6.8-13.2-14.4l0-0.2c0.3-7.6,6.8-13.6,14.4-13.2c7.6,0.3,13.6,6.8,13.2,14.4l0,0.2
			C1436.4,524.2,1430.3,530.1,1422.9,530.1z M2417.8,507.8c-7,0-13-5.3-13.8-12.4l0-0.5c-0.7-7.6,5-14.3,12.6-15
			c7.6-0.7,14.3,5,15,12.6c0.8,7.6-4.7,14.3-12.3,15.1C2418.8,507.8,2418.3,507.8,2417.8,507.8z M2431.6,492.6l-13.8,1.2
			L2431.6,492.6L2431.6,492.6L2431.6,492.6z M1426.8,486.1c-0.6,0-1.2,0-1.8-0.1c-7.6-1-12.9-7.9-11.9-15.5l0.1-0.4
			c1.1-7.6,8.2-12.8,15.8-11.6c7.5,1.1,12.7,8.1,11.6,15.7C1439.6,481,1433.6,486.1,1426.8,486.1z M2411.9,464.1
			c-6.5,0-12.3-4.6-13.6-11.2l-0.1-0.4c-1.3-7.5,3.7-14.7,11.2-16c7.5-1.3,14.7,3.7,16,11.2c1.4,7.5-3.5,14.7-11,16.2
			C2413.7,464,2412.8,464.1,2411.9,464.1z M2416.3,449.3l-4.4,0.8L2416.3,449.3z M1434.6,442.7c-1,0-2-0.1-3-0.3
			c-7.5-1.6-12.2-9-10.5-16.5l0.1-0.5c1.8-7.4,9.3-12,16.7-10.2c7.4,1.8,11.9,9.2,10.2,16.6C1446.7,438.3,1440.9,442.7,1434.6,442.7
			z M2402.2,421.1c-6.1,0-11.7-4.1-13.4-10.3l0-0.1c-2-7.4,2.4-15,9.8-17c7.4-2,15,2.4,17,9.8l0.1,0.2c2,7.4-2.4,15-9.8,17
			C2404.6,420.9,2403.4,421.1,2402.2,421.1z M1446.2,400.2c-1.4,0-2.8-0.2-4.2-0.7c-7.3-2.3-11.3-10.1-9-17.4l0.1-0.4
			c2.4-7.2,10.3-11.1,17.6-8.7c7.2,2.4,11.1,10.3,8.7,17.6C1457.5,396.5,1452.1,400.2,1446.2,400.2z M2388.8,379.1
			c-5.6,0-10.9-3.5-13-9.1l-0.1-0.2c-2.6-7.2,1-15.1,8.2-17.8c7.2-2.6,15.1,1,17.8,8.2l0.1,0.2c2.6,7.2-1,15.1-8.2,17.8
			C2392,378.8,2390.4,379.1,2388.8,379.1z M1461.5,358.7c-1.8,0-3.6-0.3-5.3-1.1c-7.1-3-10.4-11-7.4-18.1l0.1-0.2
			c3-7,11.1-10.3,18.2-7.4c7,3,10.3,11.1,7.4,18.2C1472.1,355.5,1466.9,358.7,1461.5,358.7z M2371.7,338.4c-5.2,0-10.1-2.9-12.5-7.8
			l-0.1-0.2c-3.3-6.9-0.4-15.2,6.6-18.5c6.9-3.3,15.2-0.4,18.5,6.6l0,0.1c3.3,6.9,0.4,15.2-6.5,18.5
			C2375.8,337.9,2373.7,338.4,2371.7,338.4z M1480.4,318.9c-2.2,0-4.5-0.5-6.5-1.6c-6.7-3.6-9.3-12-5.7-18.8
			c3.5-6.7,11.8-9.4,18.6-5.9c6.8,3.5,9.5,11.8,6,18.6l-0.2,0.4C1490.1,316.3,1485.3,318.9,1480.4,318.9z M1476.4,302.9l4,2.2
			L1476.4,302.9z M2351.1,299.4c-4.8,0-9.4-2.5-12-6.9c-3.9-6.6-1.8-15.1,4.8-19c6.6-3.9,15-1.8,19,4.7l0.2,0.4
			c3.8,6.6,1.5,15.1-5.1,18.9C2355.8,298.8,2353.5,299.4,2351.1,299.4z M1502.7,280.9c-2.6,0-5.1-0.7-7.5-2.2
			c-6.4-4.1-8.3-12.7-4.2-19.1l0.3-0.4c4.3-6.3,12.9-8,19.2-3.7c6.3,4.3,8,12.8,3.8,19.1C1511.7,278.7,1507.3,280.9,1502.7,280.9z
			 M2327.1,262.4c-4.3,0-8.5-2-11.3-5.8l-0.1-0.1c-4.5-6.2-3.1-14.9,3.1-19.3c6.2-4.5,14.9-3.1,19.3,3.1l0.1,0.1
			c4.5,6.2,3.1,14.9-3.1,19.3C2332.7,261.6,2329.9,262.4,2327.1,262.4z M1528.3,245c-3,0-6.1-1-8.6-3c-6-4.8-7-13.5-2.2-19.5
			l10.8,8.6l-10.8-8.6c4.7-6.1,13.3-7.2,19.4-2.5c6.1,4.7,7.2,13.4,2.5,19.5l-0.2,0.3C1536.4,243.2,1532.4,245,1528.3,245z
			 M2299.9,227.7c-3.9,0-7.8-1.7-10.6-4.9c-5-5.8-4.3-14.6,1.5-19.6c5.8-5,14.5-4.3,19.5,1.5l0.2,0.2c4.9,5.8,4.2,14.6-1.6,19.5
			C2306.2,226.6,2303.1,227.7,2299.9,227.7z M1557,211.4c-3.4,0-6.8-1.2-9.5-3.8c-5.6-5.2-5.8-14-0.6-19.6l10.1,9.5l-10-9.5
			c5.2-5.6,14-5.9,19.6-0.7c5.6,5.2,5.9,13.9,0.8,19.5l-0.2,0.2C1564.3,210,1560.7,211.4,1557,211.4z M2269.7,195.5
			c-3.5,0-6.9-1.3-9.6-3.9l-0.2-0.2c-5.5-5.4-5.5-14.1-0.1-19.6c5.4-5.4,14.1-5.5,19.6-0.1l0,0c5.5,5.3,5.6,14.1,0.3,19.6
			C2276.9,194.1,2273.3,195.5,2269.7,195.5z M1588.5,180.6c-3.8,0-7.5-1.5-10.2-4.5c-5.1-5.7-4.8-14.4,0.9-19.5l0.4-0.3
			c5.8-5,14.5-4.4,19.5,1.3c5,5.7,4.4,14.4-1.3,19.5C1595.1,179.4,1591.8,180.6,1588.5,180.6z M2236.8,166.1c-3,0-6.1-1-8.7-3.1
			l-0.2-0.2c-5.9-4.8-6.8-13.6-1.9-19.5c4.9-5.9,13.6-6.8,19.5-1.9l-8.8,10.7l8.8-10.7c5.9,4.8,6.9,13.5,2.1,19.5
			C2244.9,164.4,2240.9,166.1,2236.8,166.1z M1622.6,152.6c-4.2,0-8.4-1.9-11.1-5.6c-4.6-6.1-3.3-14.8,2.9-19.4l8.3,11.1l-8.2-11.1
			c6.1-4.6,14.8-3.4,19.4,2.7c4.6,6.1,3.4,14.8-2.7,19.4l-0.2,0.2C1628.3,151.7,1625.4,152.6,1622.6,152.6z M2201.5,139.8
			c-2.6,0-5.3-0.8-7.7-2.3l-0.3-0.2c-6.3-4.3-7.9-12.9-3.6-19.3c4.3-6.3,12.9-7.9,19.3-3.6l-7.8,11.4l7.9-11.4
			c6.4,4.2,8.1,12.8,3.8,19.2C2210.4,137.6,2206,139.8,2201.5,139.8z M1659.1,127.8c-4.6,0-9.1-2.3-11.8-6.5
			c-4.1-6.5-2.1-15,4.3-19.1l0.4-0.2c6.6-3.9,15.1-1.8,19,4.8c3.9,6.5,1.8,15-4.7,19C1664.1,127.1,1661.6,127.8,1659.1,127.8z
			 M2164,116.6c-2.3,0-4.7-0.6-6.8-1.8c-6.7-3.7-9.1-12.1-5.4-18.8c3.7-6.7,12.1-9.2,18.8-5.5l0.4,0.2c6.6,3.8,8.9,12.3,5.1,18.9
			C2173.4,114.1,2168.7,116.6,2164,116.6z M1697.6,106.3c-5,0-9.9-2.7-12.3-7.5c-3.5-6.8-0.8-15.1,6-18.6l0.3-0.1
			c6.8-3.4,15.2-0.6,18.6,6.2c3.4,6.8,0.6,15.2-6.2,18.6C1701.9,105.8,1699.7,106.3,1697.6,106.3z M2124.5,96.9
			c-1.9,0-3.8-0.4-5.6-1.2l-0.3-0.1c-7-3.2-10.1-11.4-6.9-18.3c3.2-7,11.4-10.1,18.3-6.9l-5.7,12.6l5.8-12.6c7,3.1,10.1,11.3,7,18.3
			C2134.9,93.8,2129.8,96.9,2124.5,96.9z M1737.8,88.4c-5.5,0-10.7-3.3-12.9-8.8c-2.8-7.1,0.7-15.2,7.8-18l0.2-0.1
			c7.1-2.8,15.2,0.7,18,7.8c2.8,7.1-0.7,15.2-7.8,18l-0.2,0.1C1741.2,88.1,1739.5,88.4,1737.8,88.4z M2083.5,80.6
			c-1.5,0-3.1-0.3-4.6-0.8c-7.2-2.5-11.1-10.3-8.7-17.6c2.5-7.2,10.3-11.1,17.6-8.6l0.3,0.1c7.2,2.5,11,10.5,8.5,17.7
			C2094.6,77.1,2089.2,80.6,2083.5,80.6z M1779.6,74c-6,0-11.5-3.9-13.3-9.9c-2.2-7.3,2-15,9.3-17.2l0.2-0.1
			c7.4-2.1,15,2.1,17.2,9.5c2.1,7.3-2.1,15-9.5,17.2C1782.2,73.8,1780.9,74,1779.6,74z M2041.2,68.1c-1.1,0-2.3-0.1-3.4-0.4
			c-7.4-1.8-12-9.3-10.2-16.7c1.8-7.4,9.3-12,16.7-10.2l0.3,0.1c7.4,1.9,11.9,9.4,10,16.8C2053.1,63.9,2047.4,68.1,2041.2,68.1z
			 M1822.3,63.4c-6.5,0-12.3-4.6-13.6-11.2c-1.5-7.5,3.4-14.8,10.9-16.3l2.7,13.6l-2.6-13.6c7.5-1.6,14.8,3.2,16.4,10.7
			c1.6,7.5-3.2,14.8-10.7,16.4l-0.4,0.1C1824.1,63.3,1823.2,63.4,1822.3,63.4z M1998,59.3c-0.7,0-1.5-0.1-2.2-0.2
			c-7.6-1.2-12.8-8.2-11.6-15.8c1.2-7.6,8.2-12.8,15.8-11.6l0.3,0c7.6,1.2,12.7,8.3,11.4,15.9C2010.6,54.5,2004.7,59.3,1998,59.3z
			 M1865.9,56.5c-7,0-13-5.3-13.8-12.4c-0.8-7.6,4.7-14.4,12.3-15.3l1.5,13.8l-1.5-13.8c7.6-0.9,14.5,4.6,15.3,12.2
			c0.9,7.6-4.5,14.4-12.1,15.3l-0.3,0C1866.9,56.5,1866.4,56.5,1865.9,56.5z M1954.2,54.5c-0.3,0-0.6,0-0.9,0l-0.2,0
			c-7.6-0.5-13.4-7.1-12.9-14.7c0.5-7.6,7.1-13.4,14.7-12.9l0.1,0c7.6,0.5,13.4,7.1,12.9,14.7C1967.5,48.8,1961.4,54.5,1954.2,54.5z
			 M1909.9,53.5c-7.5,0-13.7-6-13.8-13.6c-0.2-7.6,5.9-14,13.5-14.1l0.3,13.8l-0.3-13.8c7.6-0.2,14,5.8,14.2,13.5
			c0.2,7.6-5.7,14-13.4,14.2l-0.3,0C1910.1,53.5,1910,53.5,1909.9,53.5z"/>
	</g>
	<g>
		<path class="st3" d="M1896.5,1004.8c-0.3,0-0.7,0-1,0l-0.2,0c-10.2-0.6-18.1-9.3-17.5-19.5c0.6-10.2,9.3-18.1,19.5-17.5l0.2,0
			c10.2,0.6,18.1,9.3,17.5,19.5C1914.4,997.1,1906.2,1004.8,1896.5,1004.8z M1945.7,1004.8c-9.8,0-18-7.7-18.5-17.5
			c-0.6-10.2,7.3-19,17.5-19.5l0.2,0c10.2-0.6,19,7.3,19.5,17.5c0.6,10.2-7.3,19-17.5,19.5l-0.2,0
			C1946.4,1004.8,1946.1,1004.8,1945.7,1004.8z M1847.3,999.3c-1,0-2-0.1-3.1-0.3l-0.3,0c-10.1-1.8-16.8-11.4-15.1-21.4
			c1.8-10.1,11.4-16.8,21.4-15.1c10.1,1.7,16.9,11.2,15.3,21.3C1864.1,992.9,1856.2,999.3,1847.3,999.3z M1994.9,999.3
			c-8.9,0-16.7-6.4-18.3-15.4c-1.7-10.1,5-19.6,15.1-21.4l0.3,0c10.1-1.7,19.7,5.1,21.3,15.2c1.7,10.1-5.1,19.7-15.2,21.3l-3-18.3
			l3,18.3C1997,999.2,1995.9,999.3,1994.9,999.3z M1799.1,988.5c-1.7,0-3.4-0.2-5.1-0.7l-0.1,0c-9.8-2.8-15.6-13-12.9-22.8
			c2.8-9.9,12.9-15.6,22.8-12.9l0.3,0.1c9.8,2.8,15.6,13.1,12.8,22.9C1814.6,983.2,1807.2,988.5,1799.1,988.5z M2043.1,988.5
			c-8.1,0-15.6-5.4-17.9-13.6c-2.7-9.9,3-20.1,12.9-22.8c0.1,0,0.2-0.1,0.3-0.1c0.1,0,0.2-0.1,0.3-0.1l0.2,0
			c9.8-2.8,20.1,2.9,22.9,12.8c2.8,9.8-2.9,20.1-12.8,22.9l-0.2,0c-0.1,0-0.2,0.1-0.3,0.1c-0.1,0-0.2,0-0.2,0.1l-0.3,0.1
			C2046.4,988.3,2044.7,988.5,2043.1,988.5z M1752.3,972.4c-2.3,0-4.7-0.4-7-1.4l-0.1,0c-9.5-3.8-14.1-14.6-10.2-24.1
			c3.8-9.5,14.6-14.1,24.1-10.2l0.2,0.1c9.5,3.9,14,14.7,10.2,24.2C1766.6,968,1759.7,972.4,1752.3,972.4z M2090.5,972.2
			c-7.3,0-14.3-4.4-17.2-11.6c-3.8-9.5,0.7-20.3,10.2-24.1l0.1,0c9.5-3.9,20.3,0.7,24.2,10.2c3.9,9.5-0.7,20.3-10.2,24.2l-0.2,0.1
			C2095.2,971.8,2092.8,972.2,2090.5,972.2z M1707.6,951.3c-3,0-6.1-0.7-8.9-2.3c-9-4.8-12.4-15.9-7.7-25c4.8-9.1,16-12.6,25-7.8
			l0.5,0.3c9,4.9,12.2,16.2,7.3,25.2C1720.5,947.8,1714.2,951.3,1707.6,951.3z M1707.7,932.7l-8.9,16.2l0,0L1707.7,932.7z
			 M2135.2,951.1c-6.7,0-13.1-3.6-16.4-9.9c-4.7-9-1.3-20.2,7.7-25c9-4.9,20.2-1.6,25.1,7.4c4.9,9,1.7,20.2-7.3,25.2l-0.5,0.3
			C2141,950.5,2138.1,951.1,2135.2,951.1z M1665.5,925.4c-3.6,0-7.2-1-10.4-3.2c-0.2-0.1-0.3-0.2-0.5-0.3c-8.3-6-10.2-17.5-4.3-25.9
			c5.9-8.3,17.4-10.2,25.7-4.4c8.4,5.8,10.5,17.3,4.7,25.7C1677.2,922.6,1671.4,925.4,1665.5,925.4z M2177.3,925.2
			c-5.9,0-11.7-2.8-15.3-8.1c-5.8-8.5-3.6-20,4.8-25.8c8.4-5.9,19.9-3.8,25.8,4.5c5.9,8.4,3.8,20-4.5,25.8l-0.3,0.2
			C2184.5,924.2,2180.9,925.2,2177.3,925.2z M1626.5,895.1c-4.3,0-8.5-1.5-12-4.5l-0.3-0.3c-7.7-6.8-8.4-18.5-1.6-26.2
			c6.8-7.7,18.4-8.4,26.1-1.7c7.7,6.7,8.6,18.4,2,26.1C1636.9,892.9,1631.7,895.1,1626.5,895.1z M2216.2,894.8
			c-5.2,0-10.3-2.2-14-6.4c-6.7-7.7-5.9-19.4,1.8-26.2c7.7-6.8,19.4-6.1,26.2,1.6c6.8,7.7,6.1,19.4-1.6,26.2l-0.2,0.2
			C2224.9,893.3,2220.5,894.8,2216.2,894.8z M1591.1,860.7c-5,0-9.9-2-13.6-5.9l-0.2-0.2c-6.9-7.6-6.4-19.3,1.2-26.2
			c7.6-6.9,19.3-6.4,26.2,1.2c7,7.5,6.5,19.3-1,26.2C1600.1,859,1595.6,860.7,1591.1,860.7z M2251.5,860.3c-4.5,0-9-1.6-12.5-4.9
			c-7.5-6.9-8.1-18.6-1.2-26.1l0.2-0.2c7-7.5,18.7-8,26.2-1c7.5,7,8,18.7,1,26.2l-13.6-12.6l13.6,12.6
			C2261.6,858.3,2256.6,860.3,2251.5,860.3z M1559.7,822.6c-5.7,0-11.4-2.6-15-7.6l15-10.9l-15,10.9c-6.1-8.2-4.3-19.9,3.9-25.9
			c8.2-6.1,19.8-4.3,25.9,3.9l0.2,0.2c6,8.3,4.2,19.9-4,25.9C1567.3,821.4,1563.5,822.6,1559.7,822.6z M2282.9,822.1
			c-3.8,0-7.6-1.2-10.9-3.6c-8.3-6-10.1-17.6-4-25.9l0.1-0.1c6-8.3,17.6-10.1,25.9-4c8.3,6,10.1,17.6,4,25.9l-0.1,0.1
			C2294.2,819.5,2288.6,822.1,2282.9,822.1z M1532.6,781.2c-6.4,0-12.6-3.3-16-9.2l-0.1-0.2c-5.1-8.9-2-20.2,6.8-25.3
			c8.9-5.1,20.2-2,25.3,6.8c5.2,8.8,2.2,20.2-6.7,25.4C1539,780.4,1535.8,781.2,1532.6,781.2z M2309.8,780.7c-3.1,0-6.3-0.8-9.2-2.5
			c-8.9-5.1-11.9-16.4-6.8-25.3l0.1-0.2c5.2-8.8,16.5-11.8,25.4-6.7c8.8,5.2,11.8,16.5,6.7,25.4l0,0.1
			C2322.5,777.4,2316.3,780.7,2309.8,780.7z M1510.4,737.1c-7.2,0-14-4.2-17-11.2c-4.1-9.3,0-20.2,9.3-24.4
			c9.3-4.2,20.3-0.1,24.5,9.3l0.2,0.5c4,9.4-0.3,20.3-9.7,24.3C1515.3,736.6,1512.8,737.1,1510.4,737.1z M1510.3,718.6l-17,7.3l0,0
			L1510.3,718.6z M2332.1,736.6c-2.6,0-5.2-0.5-7.6-1.7c-9.3-4.2-13.4-15.1-9.3-24.4c4.1-9.4,14.9-13.7,24.3-9.7
			c9.4,4,13.8,14.9,9.7,24.3l-0.2,0.5C2346,732.6,2339.2,736.6,2332.1,736.6z M1493,690.8c-7.8,0-15.1-5-17.6-12.9
			c-0.1-0.2-0.1-0.4-0.2-0.6c-2.9-9.8,2.7-20.1,12.5-23c9.8-2.9,20,2.6,23,12.3c3.1,9.7-2.3,20.1-12,23.2
			C1496.8,690.5,1494.9,690.8,1493,690.8z M2349.5,690.3c-1.8,0-3.5-0.3-5.3-0.8c-9.8-2.9-15.4-13.3-12.5-23.1l0.1-0.5
			c3.1-9.8,13.5-15.1,23.3-12c9.7,3.1,15.1,13.5,12.1,23.3C2364.8,685.2,2357.4,690.3,2349.5,690.3z M2349.5,671.6l17.7,5.6l0,0
			L2349.5,671.6z M1480.9,642.9c-8.7,0-16.4-6.1-18.2-14.9l0-0.2c-2-10,4.5-19.8,14.6-21.8c10.1-2,19.8,4.5,21.8,14.6l0,0.1
			c2,10-4.5,19.8-14.5,21.8C1483.3,642.8,1482.1,642.9,1480.9,642.9z M2361.7,642.4c-1.1,0-2.1-0.1-3.2-0.3
			c-10.1-1.8-16.8-11.4-15-21.5c0-0.2,0.1-0.4,0.1-0.6c2-10,11.8-16.5,21.8-14.5c10,2,16.5,11.7,14.6,21.7
			C2378.2,636.2,2370.4,642.4,2361.7,642.4z M2361.7,623.7l18.2,3.7l0,0L2361.7,623.7z M1474,594c-9.5,0-17.6-7.3-18.4-16.9l0-0.1
			c-0.9-10.2,6.6-19.2,16.8-20.1c10.2-0.9,19.2,6.6,20.1,16.8l0,0.2c0.9,10.2-6.7,19.2-16.9,20.1C1475.1,593.9,1474.5,594,1474,594z
			 M2368.4,593.4c-0.4,0-0.8,0-1.2,0c-10.2-0.7-18-9.5-17.3-19.7l0-0.5c0.9-10.2,9.9-17.7,20.1-16.9c10.2,0.9,17.7,9.8,16.9,20
			C2386.2,586,2378.1,593.4,2368.4,593.4z M2368.4,574.7l18.5,1.6l0,0L2368.4,574.7z M1472.6,544.5c-0.1,0-0.3,0-0.4,0
			c-10.2-0.2-18.3-8.7-18.1-18.9c0-0.2,0-0.4,0-0.6c0.4-10.2,9.1-18.2,19.3-17.7c10.2,0.4,18.1,9,17.7,19.2
			C1490.9,536.5,1482.6,544.5,1472.6,544.5z M2369.7,544c-9.9,0-18.1-7.8-18.5-17.7c0-0.2,0-0.4,0-0.6c-0.2-10.2,7.9-18.7,18.1-18.9
			c0.1,0,0.3,0,0.4,0c10,0,18.3,8,18.5,18.1c0.3,10.1-7.5,18.7-17.7,19.1C2370.3,544,2370,544,2369.7,544z M2388.2,524.9l-18.5,0.4
			L2388.2,524.9z M1476.7,495.2c-0.8,0-1.6-0.1-2.5-0.2c-10.1-1.3-17.3-10.6-16-20.8c0-0.2,0.1-0.4,0.1-0.6
			c1.6-10.1,11-17.1,21.1-15.5c10.1,1.5,17,10.9,15.5,21C1493.8,488.5,1485.8,495.2,1476.7,495.2z M2365.5,494.8
			c-9,0-16.9-6.6-18.3-15.7c0-0.2-0.1-0.4-0.1-0.6c-1.3-10.2,5.8-19.5,16-20.8c10.1-1.3,19.4,5.8,20.8,15.9
			c1.4,10.1-5.5,19.4-15.5,21C2367.4,494.7,2366.5,494.8,2365.5,494.8z M2383.9,473.7l-18.4,2.4L2383.9,473.7L2383.9,473.7
			L2383.9,473.7z M1486.2,446.7c-1.5,0-3-0.2-4.5-0.5c-9.9-2.5-16-12.5-13.5-22.4l0.1-0.5c2.7-9.9,12.8-15.7,22.7-13.1
			c9.8,2.7,15.7,12.7,13.1,22.6C1502,441.1,1494.5,446.7,1486.2,446.7z M2356,446.3c-8.2,0-15.7-5.4-17.9-13.7l-0.1-0.5
			c-2.5-9.9,3.6-20,13.5-22.4c9.9-2.5,20,3.6,22.4,13.5c2.6,9.8-3.3,19.9-13.1,22.6C2359.2,446.1,2357.6,446.3,2356,446.3z
			 M2373.9,423.1l-18,4.4L2373.9,423.1L2373.9,423.1L2373.9,423.1z M1501,399.5c-2.1,0-4.3-0.4-6.5-1.2
			c-9.6-3.6-14.5-14.2-10.9-23.8l0.1-0.2c3.6-9.6,14.2-14.5,23.8-10.9c9.6,3.6,14.5,14.2,10.9,23.8l-0.1,0.2
			C1515.6,394.9,1508.5,399.5,1501,399.5z M2341.2,399.1c-7.5,0-14.6-4.6-17.4-12.1l-0.1-0.2c-3.6-9.6,1.3-20.3,10.9-23.8
			c9.6-3.6,20.3,1.3,23.8,10.9l0.1,0.2c3.6,9.6-1.3,20.3-10.9,23.8C2345.6,398.7,2343.4,399.1,2341.2,399.1z M1520.8,354.3
			c-2.8,0-5.7-0.7-8.4-2c-9.1-4.7-12.7-15.8-8.1-24.9c4.5-9.1,15.6-12.9,24.7-8.4c9.2,4.5,13,15.6,8.5,24.8l-0.2,0.5
			C1534,350.6,1527.5,354.3,1520.8,354.3z M1504.3,327.3l16.5,8.5L1504.3,327.3L1504.3,327.3z M2321.4,353.9
			c-6.8,0-13.4-3.8-16.6-10.3c-4.6-9.1-1-20.2,8.1-24.9c9.1-4.7,20.3-1.1,24.9,8l0.2,0.5c4.5,9.2,0.7,20.3-8.5,24.8
			C2326.9,353.2,2324.1,353.9,2321.4,353.9z M1545.5,311.5c-3.5,0-7-1-10.1-3c-8.6-5.6-11-17-5.5-25.6l0.1-0.2
			c5.6-8.6,17.1-10.9,25.7-5.3s10.9,17.1,5.3,25.7C1557.5,308.5,1551.6,311.5,1545.5,311.5z M2296.7,311c-6,0-11.9-2.9-15.5-8.3
			l-0.1-0.2c-5.6-8.6-3.1-20.1,5.5-25.6c8.6-5.6,20.1-3.1,25.6,5.5l-15.5,10.1l15.6-10c5.6,8.6,3.2,20.1-5.3,25.7
			C2303.7,310.1,2300.2,311,2296.7,311z M1574.7,271.6c-4.1,0-8.3-1.4-11.7-4.2c-7.9-6.5-9.1-18.1-2.6-26.1l0.2-0.2
			c6.5-7.9,18.2-9,26.1-2.4c7.9,6.5,9,18.2,2.4,26.1C1585.4,269.3,1580.1,271.6,1574.7,271.6z M2267.4,271.3
			c-5.4,0-10.7-2.3-14.4-6.8c-6.5-7.9-5.4-19.6,2.4-26.1c7.9-6.5,19.6-5.4,26.1,2.4l0.2,0.2c6.5,7.9,5.3,19.6-2.6,26.1
			C2275.7,269.9,2271.5,271.3,2267.4,271.3z M1608.1,235.2c-4.8,0-9.7-1.9-13.3-5.6c-7.1-7.3-6.9-19.1,0.4-26.2
			c7.2-7.2,18.9-7.1,26.1,0.1c7.2,7.2,7.2,19,0,26.2l-0.3,0.3C1617.5,233.5,1612.8,235.2,1608.1,235.2z M1604.7,213.1l3.5,3.6
			L1604.7,213.1z M2233.9,235c-4.6,0-9.2-1.7-12.8-5.1l-0.2-0.2c-7.4-7.1-7.5-18.9-0.4-26.2c7.1-7.4,18.9-7.5,26.2-0.4l-12.9,13.3
			l12.9-13.3c7.4,7.1,7.6,18.8,0.5,26.2C2243.6,233.1,2238.7,235,2233.9,235z M1645.4,202.8c-5.5,0-11-2.5-14.6-7.2
			c-6.3-8.1-4.8-19.7,3.3-26l11.4,14.6l-11.4-14.7c8-6.4,19.7-5,26,3c6.4,8,5,19.7-3,26.1l-0.3,0.2
			C1653.4,201.5,1649.3,202.8,1645.4,202.8z M2196.6,202.6c-3.9,0-7.9-1.2-11.2-3.8l-0.3-0.2c-8.1-6.3-9.5-17.9-3.3-26
			s17.9-9.5,26-3.3l-11.4,14.6l11.4-14.6c8.2,6.2,9.7,17.8,3.6,25.9C2207.8,200.1,2202.3,202.6,2196.6,202.6z M1686,174.6
			c-6.2,0-12.3-3.1-15.8-8.8c-5.4-8.7-2.6-20.1,6.1-25.5l0.1-0.1c8.7-5.4,20.1-2.6,25.5,6.1s2.6,20.1-6.1,25.5l-0.1,0.1
			C1692.6,173.7,1689.3,174.6,1686,174.6z M2156,174.5c-3.3,0-6.7-0.9-9.7-2.8l-0.1-0.1c-8.7-5.4-11.4-16.8-6.1-25.5
			s16.8-11.4,25.5-6.1l0.1,0.1c8.7,5.4,11.4,16.8,6.1,25.5C2168.3,171.3,2162.2,174.5,2156,174.5z M1729.4,151.1
			c-6.9,0-13.6-3.9-16.8-10.6c-4.4-9.2-0.5-20.3,8.8-24.7l0.3-0.1c9.3-4.3,20.3-0.3,24.6,9c4.3,9.3,0.3,20.3-9,24.6
			C1734.8,150.5,1732.1,151.1,1729.4,151.1z M2112.5,151c-2.6,0-5.3-0.6-7.8-1.7l-0.3-0.1c-9.2-4.4-13.2-15.5-8.8-24.7
			c4.4-9.2,15.5-13.2,24.7-8.8l-8,16.7l8-16.7c9.3,4.3,13.3,15.3,9,24.6C2126.2,147,2119.5,151,2112.5,151z M1775.2,132.5
			c-7.7,0-14.9-4.8-17.5-12.4c-3.4-9.7,1.7-20.2,11.4-23.6l0.5-0.2c9.7-3.2,20.2,2.1,23.4,11.8c3.2,9.7-2,20.1-11.7,23.4
			C1779.3,132.2,1777.3,132.5,1775.2,132.5z M2066.7,132.3c-2,0-4-0.3-6-1l-0.3-0.1c-9.7-3.4-14.8-13.9-11.4-23.6
			c3.4-9.7,13.9-14.8,23.6-11.4l-6.1,17.5l6.2-17.5c9.7,3.3,14.8,13.9,11.5,23.6C2081.6,127.5,2074.4,132.3,2066.7,132.3z
			 M1822.8,119c-8.5,0-16.2-5.9-18.1-14.5c-2.2-10,4.1-19.9,14.1-22.1c9.9-2.3,19.9,3.8,22.2,13.8c2.4,10-3.8,20-13.7,22.3l-0.4,0.1
			C1825.4,118.9,1824.1,119,1822.8,119z M1821.7,95.7l1.1,4.8L1821.7,95.7z M2019.2,118.9c-1.3,0-2.7-0.1-4-0.4l-0.2,0
			c-10-2.2-16.3-12.1-14.1-22.1c2.2-10,12.1-16.3,22.1-14.1l0.2,0c10,2.2,16.3,12.1,14.1,22.1C2035.3,113,2027.7,118.9,2019.2,118.9
			z M1871.5,110.8c-9.3,0-17.4-7-18.4-16.5c-1.1-10.2,6.2-19.3,16.4-20.4l2,18.4l-2-18.4c10.2-1.2,19.4,6,20.6,16.2
			c1.2,10.2-6,19.4-16.2,20.7l-0.4,0C1872.8,110.8,1872.2,110.8,1871.5,110.8z M1970.4,110.7c-0.7,0-1.4,0-2.1-0.1
			c-10.2-1.1-17.6-10.3-16.5-20.4c1.1-10.2,10.2-17.5,20.4-16.4l0.2,0c10.2,1.1,17.5,10.3,16.4,20.5
			C1987.8,103.7,1979.7,110.7,1970.4,110.7z M1921,108h-0.2c-10.2,0-18.5-8.3-18.5-18.5s8.3-18.5,18.5-18.5h0.2
			c10.2,0,18.5,8.3,18.5,18.5S1931.3,108,1921,108z"/>
	</g>
	<g>
		<path class="st3" d="M1907.8,963.2c-0.2,0-0.4,0-0.6,0l-0.2,0c-10.2-0.3-18.3-8.9-17.9-19.1c0.3-10.2,8.9-18.2,19.1-17.9l0.1,0
			c10.2,0.3,18.3,8.9,17.9,19.1C1926,955.3,1917.8,963.2,1907.8,963.2z M1956.7,961.8c-9.5,0-17.6-7.3-18.4-16.9
			c-0.9-10.2,6.7-19.2,16.9-20.1l0.1,0c10.2-0.9,19.2,6.6,20.1,16.8c0.9,10.2-6.6,19.2-16.8,20.1l-0.2,0
			C1957.8,961.8,1957.2,961.8,1956.7,961.8z M1858.9,958.6c-0.9,0-1.9-0.1-2.9-0.2l-0.2,0c-10.1-1.6-17-11.1-15.5-21.2
			c1.6-10.1,11.1-17,21.2-15.5l0.2,0c10.1,1.6,17,11.1,15.5,21.2C1875.8,952,1867.9,958.6,1858.9,958.6z M2005.3,954.5
			c-8.5,0-16.2-5.9-18.1-14.6c-2.2-10,4.2-19.9,14.2-22l0.2-0.1c10-2.1,19.9,4.3,22,14.3c2.1,10-4.3,19.9-14.3,22l-0.1,0
			C2007.9,954.4,2006.6,954.5,2005.3,954.5z M1811,948.1c-1.7,0-3.4-0.2-5.1-0.7l5.1-17.8l-5.1,17.8c-9.9-2.7-15.7-12.9-13-22.8
			c2.7-9.9,12.9-15.7,22.8-13l0.3,0.1c9.8,2.8,15.6,13.1,12.8,22.9C1826.5,942.8,1819,948.1,1811,948.1z M2052.6,941.4
			c-7.8,0-15-4.9-17.6-12.7c-3.2-9.7,2-20.1,11.7-23.4c0.1,0,0.1-0.1,0.2-0.1c0.1,0,0.2-0.1,0.3-0.1c9.7-3.4,20.2,1.7,23.6,11.4
			c3.4,9.7-1.7,20.2-11.4,23.6l-0.3,0.1c0,0-0.1,0-0.1,0c0,0,0,0-0.1,0l-0.5,0.2C2056.5,941.1,2054.5,941.4,2052.6,941.4z
			 M1764.6,932c-2.4,0-4.8-0.5-7.1-1.4l-0.1-0.1c-9.5-3.9-13.9-14.8-10-24.2c3.9-9.5,14.8-13.9,24.2-10l0.1,0.1
			c9.5,3.9,13.9,14.8,10,24.2C1778.7,927.7,1771.8,932,1764.6,932z M2098.5,922.6c-6.9,0-13.6-3.9-16.8-10.6
			c-4.4-9.2-0.5-20.3,8.8-24.7c9.2-4.5,20.3-0.7,24.8,8.5c4.5,9.2,0.7,20.3-8.5,24.8l-0.3,0.1C2103.9,922,2101.2,922.6,2098.5,922.6
			z M1720.5,910.4c-3.1,0-6.2-0.8-9.1-2.4l-0.3-0.2c-8.9-5.1-11.9-16.5-6.8-25.3c5.1-8.9,16.5-11.9,25.3-6.8
			c8.9,5,12.1,16.3,7.1,25.2C1733.3,907,1727,910.4,1720.5,910.4z M2141.3,898.6c-6.1,0-12.1-3-15.6-8.5c-5.5-8.6-3-20.1,5.6-25.6
			c8.6-5.5,20.1-3.1,25.7,5.5c5.5,8.6,3.1,20-5.5,25.6l-0.2,0.1C2148.2,897.7,2144.7,898.6,2141.3,898.6z M1679.4,883.6
			c-3.8,0-7.6-1.2-10.9-3.6l-0.3-0.2c-8.2-6.1-9.9-17.8-3.7-26c6.1-8.2,17.8-9.9,26-3.7c8.3,6,10,17.6,4,25.9
			C1690.7,881,1685.1,883.6,1679.4,883.6z M2180.9,869.6c-5.3,0-10.6-2.3-14.3-6.7c-6.5-7.9-5.4-19.6,2.4-26.1l0.1-0.1
			c7.9-6.5,19.6-5.4,26.1,2.4c6.5,7.9,5.4,19.6-2.4,26.1l-0.1,0.1C2189.3,868.2,2185.1,869.6,2180.9,869.6z M1641.7,852.1
			c-4.5,0-9.1-1.7-12.7-5l-0.2-0.2c-7.4-7.1-7.7-18.8-0.6-26.2s18.8-7.7,26.2-0.6c7.5,7,7.8,18.7,0.8,26.2
			C1651.6,850.2,1646.6,852.1,1641.7,852.1z M2216.6,836c-4.6,0-9.1-1.7-12.7-5c-7.5-7-7.8-18.7-0.8-26.2l0.1-0.1
			c7-7.5,18.7-7.8,26.2-0.8c7.5,7,7.8,18.7,0.8,26.2l-0.1,0.1C2226.5,834.1,2221.6,836,2216.6,836z M1608.2,816.4
			c-5.3,0-10.6-2.3-14.3-6.7l14.3-11.8l-14.3,11.8c-6.5-7.9-5.5-19.5,2.3-26.1c7.8-6.6,19.5-5.6,26.1,2.3l0.2,0.2
			c6.5,7.9,5.4,19.6-2.4,26.1C1616.5,815,1612.3,816.4,1608.2,816.4z M2248.1,798.4c-3.8,0-7.6-1.2-10.9-3.6
			c-8.3-6-10.1-17.6-4-25.9l0.2-0.2c6.1-8.2,17.7-10,25.9-3.9c8.2,6.1,10,17.7,3.9,25.9l-14.9-11l14.9,11.1
			C2259.4,795.7,2253.8,798.4,2248.1,798.4z M1579.2,776.8c-6.1,0-12.1-3-15.6-8.5l-0.2-0.3c-5.5-8.7-2.9-20.1,5.8-25.6
			c8.7-5.5,20.1-2.9,25.6,5.8c5.6,8.6,3.1,20-5.5,25.6C1586.2,775.8,1582.7,776.8,1579.2,776.8z M2274.8,757.2
			c-3.1,0-6.3-0.8-9.2-2.5c-8.9-5.1-11.9-16.4-6.8-25.3c5-8.9,16.2-12.1,25.2-7.1c8.9,5,12.1,16.3,7.2,25.3l-0.2,0.4
			C2287.4,753.9,2281.2,757.2,2274.8,757.2z M1555.2,733.9c-6.9,0-13.4-3.8-16.7-10.4l-0.2-0.5c-4.3-9.3-0.3-20.3,9-24.6
			c9.2-4.3,20.2-0.3,24.6,8.9c4.4,9.2,0.6,20.3-8.6,24.7C1560.7,733.3,1557.9,733.9,1555.2,733.9z M2296.4,713.1
			c-2.3,0-4.7-0.4-7-1.4c-9.5-3.8-14.1-14.6-10.2-24.1l0.2-0.5c4-9.4,14.9-13.8,24.3-9.7c9.4,4,13.8,14.9,9.8,24.3
			C2310.5,708.8,2303.6,713.1,2296.4,713.1z M2296.4,694.4l17,7.3l0,0L2296.4,694.4z M1536.6,688.5c-7.6,0-14.8-4.7-17.5-12.3l0,0
			c-3-8.3,0.3-17.9,8.2-22.4c8.9-5.1,20.2-2,25.3,6.9c0.6,1.1,1.1,2.2,1.5,3.4c3.2,9.6-1.8,20-11.4,23.4
			C1540.7,688.2,1538.6,688.5,1536.6,688.5z M2312.5,666.8c-1.8,0-3.5-0.3-5.3-0.8c-9.7-2.9-15.3-13.1-12.5-22.9
			c2.7-9.8,12.9-15.6,22.7-12.9c9.9,2.7,15.7,12.9,13,22.7c-0.1,0.2-0.1,0.4-0.2,0.6C2327.9,661.6,2320.5,666.8,2312.5,666.8z
			 M1523.4,641.2c-8.5,0-16.1-5.8-18.1-14.5c0-0.2-0.1-0.4-0.1-0.6c-2-10,4.5-19.8,14.5-21.8c10-2,19.7,4.4,21.8,14.3
			c2.2,10-4.1,19.8-14.1,22.1C1526.1,641.1,1524.8,641.2,1523.4,641.2z M2323,618.8c-0.9,0-1.9-0.1-2.8-0.2
			c-10.1-1.6-17.1-11-15.5-21.1l0-0.2c1.6-10.1,11.1-17,21.2-15.5c10.1,1.6,17,11.1,15.5,21.2l0,0.1
			C2339.9,612.2,2332,618.8,2323,618.8z M1516.1,592.7c-9.5,0-17.6-7.3-18.4-16.9l0-0.2c-0.9-10.2,6.6-19.2,16.8-20.1
			c10.2-0.9,19.2,6.6,20.1,16.8l0,0.2c0.9,10.2-6.6,19.2-16.8,20.1C1517.2,592.7,1516.7,592.7,1516.1,592.7z M2327.5,569.9
			c-0.3,0-0.5,0-0.8,0c-10.2-0.4-18.1-9-17.7-19.2c0.3-10.2,8.7-18.3,18.9-18c10.2,0.2,18.3,8.7,18.1,18.9c0,0.2,0,0.4,0,0.6
			C2345.6,562.1,2337.4,569.9,2327.5,569.9z M1514.8,543.6c-0.1,0-0.3,0-0.4,0c-10.2-0.2-18.4-8.7-18.1-18.9c0-0.1,0-0.2,0-0.3
			c0.3-10.1,8.5-18,18.5-18c0.1,0,0.3,0,0.4,0c10.2,0.2,18.4,8.7,18.1,18.9c0,0.1,0,0.2,0,0.3C1533,535.6,1524.8,543.6,1514.8,543.6
			z M2326.1,520.8c-9.5,0-17.6-7.3-18.4-16.9l0-0.2c-0.9-10.2,6.6-19.2,16.8-20.1c10.2-0.9,19.2,6.6,20.1,16.8l0,0.2
			c0.9,10.2-6.6,19.2-16.8,20.1C2327.2,520.8,2326.6,520.8,2326.1,520.8z M1519.3,494.7c-0.9,0-1.9-0.1-2.9-0.2
			c-10.1-1.6-17-11.1-15.5-21.2l0-0.1c1.6-10.1,11-17.1,21.1-15.5c10.1,1.6,17.1,11,15.5,21.1l0,0.2
			C1536.2,488.2,1528.3,494.7,1519.3,494.7z M2318.8,472.3c-8.6,0-16.3-6-18.1-14.7c-2.2-10,4.1-19.8,14.1-22.1
			c10-2.2,19.9,4,22.1,14c0,0.2,0.1,0.4,0.1,0.6c2,10-4.5,19.8-14.5,21.8C2321.2,472.2,2320,472.3,2318.8,472.3z M1529.8,446.7
			c-1.6,0-3.3-0.2-4.9-0.7c-9.9-2.7-15.7-12.9-13-22.7c0.1-0.2,0.1-0.4,0.2-0.6c2.9-9.8,13.3-15.4,23.1-12.5
			c9.7,2.9,15.3,13.1,12.5,22.9C1545.4,441.3,1537.9,446.7,1529.8,446.7z M2305.6,425c-7.8,0-15-4.9-17.6-12.7
			c-3.3-9.6,1.8-20.2,11.4-23.5c9.7-3.4,20.2,1.7,23.6,11.4c0.1,0.2,0.1,0.4,0.2,0.6c3.1,9.7-2.2,20.2-12,23.3
			C2309.4,424.7,2307.5,425,2305.6,425z M1545.9,400.4c-2.4,0-4.9-0.5-7.3-1.5c-9.4-4-13.8-14.9-9.8-24.3
			c3.9-9.4,14.6-13.9,24.1-10.1c9.5,3.8,14.1,14.6,10.2,24.1l-0.2,0.5C1560,396.2,1553.1,400.4,1545.9,400.4z M1528.9,374.5l17,7.3
			L1528.9,374.5L1528.9,374.5z M2287,379.6c-7,0-13.6-3.9-16.8-10.6c-4.4-9.2-0.6-20.3,8.6-24.7c9.2-4.5,20.3-0.7,24.8,8.5l0.2,0.5
			c4.3,9.3,0.3,20.3-9,24.6C2292.3,379,2289.6,379.6,2287,379.6z M1567.5,356.4c-3.1,0-6.2-0.8-9-2.4c-8.9-5-12.1-16.3-7.2-25.3
			l0.2-0.4c5.1-8.9,16.4-11.9,25.3-6.8c8.9,5.1,11.9,16.4,6.8,25.3C1580.3,352.9,1574,356.4,1567.5,356.4z M2263,336.7
			c-6.1,0-12.2-3.1-15.7-8.6c-5.6-8.6-3.1-20,5.5-25.6c8.6-5.6,20.1-3.1,25.7,5.5l0.2,0.3c5.5,8.7,2.9,20.1-5.8,25.6
			C2269.9,335.8,2266.4,336.7,2263,336.7z M1594.2,315.1c-3.8,0-7.7-1.2-11-3.6c-8.2-6.1-10-17.7-3.9-25.9l14.9,11l-14.9-11.1
			c6.1-8.2,17.7-10,25.9-4c8.3,6,10.1,17.6,4,25.9l-0.2,0.2C1605.5,312.5,1599.9,315.1,1594.2,315.1z M2234,297.1
			c-5.3,0-10.5-2.2-14.2-6.6l-0.2-0.2c-6.5-7.9-5.4-19.6,2.4-26.1c7.9-6.5,19.6-5.4,26.1,2.4l-14.3,11.8l14.3-11.8
			c6.5,7.9,5.5,19.5-2.3,26.1C2242.4,295.7,2238.2,297.1,2234,297.1z M1625.7,277.5c-4.6,0-9.1-1.7-12.7-5c-7.5-7-7.8-18.7-0.8-26.2
			l0.3-0.3c7.1-7.4,18.9-7.5,26.2-0.4c7.3,7.1,7.5,18.8,0.5,26.1C1635.5,275.5,1630.6,277.5,1625.7,277.5z M2200.5,261.4
			c-4.6,0-9.2-1.7-12.8-5.1c-7.5-7-7.8-18.7-0.8-26.2c7-7.5,18.7-7.8,26.2-0.8l0.2,0.2c7.4,7.1,7.7,18.8,0.6,26.2
			C2210.2,259.5,2205.4,261.4,2200.5,261.4z M1661.5,243.9c-5.3,0-10.6-2.3-14.3-6.7c-6.5-7.9-5.4-19.6,2.4-26.1l0.1-0.1
			c7.9-6.5,19.6-5.4,26.1,2.4c6.5,7.9,5.4,19.6-2.4,26.1l-0.1,0.1C1669.8,242.5,1665.6,243.9,1661.5,243.9z M2162.8,229.9
			c-3.9,0-7.8-1.2-11.1-3.7c-8.3-6-10-17.6-4-25.9c6-8.3,17.7-10.1,25.9-4l0.3,0.2c8.2,6.1,9.9,17.8,3.7,26
			C2174,227.3,2168.4,229.9,2162.8,229.9z M1701.1,214.9c-6.1,0-12.1-3-15.6-8.5c-5.5-8.6-3.1-20,5.5-25.6l0.2-0.1
			c8.6-5.5,20.1-3,25.6,5.6c5.5,8.6,3,20.1-5.6,25.6C1708.1,213.9,1704.6,214.9,1701.1,214.9z M2121.6,203.2c-3.1,0-6.3-0.8-9.2-2.5
			c-8.9-5-12.1-16.3-7.1-25.2c5-8.9,16.3-12.1,25.3-7.1l0.3,0.2c8.9,5.1,11.9,16.5,6.8,25.3C2134.3,199.9,2128,203.2,2121.6,203.2z
			 M1743.9,191c-6.9,0-13.5-3.8-16.7-10.4c-4.5-9.2-0.7-20.3,8.5-24.8l0.3-0.1c9.2-4.4,20.3-0.5,24.7,8.8c4.4,9.2,0.5,20.3-8.8,24.7
			C1749.4,190.3,1746.6,191,1743.9,191z M2077.6,181.6c-2.4,0-4.8-0.5-7.1-1.4l-0.1-0.1c-9.5-3.9-13.9-14.8-10-24.2
			c3.9-9.5,14.8-13.9,24.2-10l0.1,0.1c9.5,3.9,13.9,14.8,10,24.2C2091.7,177.3,2084.8,181.6,2077.6,181.6z M1789.2,172.3
			c-7.7,0-14.8-4.8-17.5-12.4c-3.4-9.7,1.7-20.2,11.4-23.6l0.3-0.1c9.7-3.3,20.2,1.9,23.5,11.6c3.3,9.7-1.9,20.2-11.6,23.5
			C1793.3,172,1791.3,172.3,1789.2,172.3z M2031.2,165.5c-1.6,0-3.3-0.2-4.9-0.7l-0.3-0.1c-9.8-2.8-15.6-13.1-12.8-22.9
			c2.8-9.8,13.1-15.6,22.9-12.8l-5.1,17.8l5.1-17.8c9.9,2.7,15.7,12.9,13,22.8C2046.9,160,2039.4,165.5,2031.2,165.5z M1836.6,159.2
			c-8.6,0-16.3-6-18.1-14.7c-2.1-10,4.3-19.9,14.3-22l0.1,0c10-2.2,19.9,4.2,22,14.2c2.2,10-4.2,19.9-14.2,22l-0.2,0.1
			C1839.1,159,1837.8,159.2,1836.6,159.2z M1983.3,155c-0.9,0-1.9-0.1-2.9-0.2l-0.2,0c-10.1-1.6-17-11.1-15.5-21.2
			s11.1-17,21.2-15.5l0.2,0c10.1,1.6,17,11.1,15.5,21.2C2000.1,148.5,1992.3,155,1983.3,155z M1885.1,151.8
			c-9.5,0-17.6-7.3-18.4-16.9c-0.9-10.2,6.6-19.2,16.8-20.1l0.2,0c10.2-0.9,19.2,6.7,20.1,16.9c0.9,10.2-6.7,19.2-16.9,20.1l-0.1,0
			C1886.2,151.8,1885.6,151.8,1885.1,151.8z M1934.4,150.4c-0.2,0-0.4,0-0.6,0l-0.1,0c-10.2-0.3-18.3-8.9-17.9-19.1
			c0.3-10.2,8.9-18.3,19.1-17.9l0.2,0c10.2,0.3,18.3,8.9,17.9,19.1C1952.6,142.5,1944.3,150.4,1934.4,150.4z"/>
	</g>
	<g>
		<path class="st3" d="M1912.3,921.7c-0.2,0-0.4,0-0.7,0l-0.4,0c-15.6-0.5-27.9-13.5-27.4-29.2c0.5-15.6,13.5-27.9,29.2-27.4
			c15.6,0.4,28,13.3,27.7,29C1940.2,909.5,1927.6,921.7,1912.3,921.7z M1977.4,917.3c-13.6,0-25.6-9.9-27.9-23.7
			c-2.5-15.4,7.9-30,23.4-32.5l0.3,0c15.4-2.5,30,8,32.5,23.4c2.5,15.4-8,30-23.4,32.5l-0.2,0
			C1980.5,917.2,1978.9,917.3,1977.4,917.3z M1847.2,914c-1.9,0-3.9-0.2-5.9-0.6l-0.4-0.1c-15.3-3.3-25-18.4-21.6-33.7
			c3.3-15.3,18.4-25,33.7-21.6c15.3,3.2,25.1,18.3,21.9,33.6C1872,904.9,1860.3,914,1847.2,914z M2040.9,901
			c-11.5,0-22.3-7.1-26.6-18.5c-5.4-14.7,2.1-31,16.8-36.4l0.5-0.2c0,0,0.1,0,0.1,0c0,0,0,0,0,0l0.3-0.1c14.7-5.3,30.9,2.3,36.2,17
			c5.3,14.7-2.3,30.9-17,36.2l-0.2,0.1c-0.1,0-0.2,0.1-0.3,0.1c-0.1,0-0.1,0-0.2,0.1C2047.4,900.4,2044.1,901,2040.9,901z
			 M1784.6,894.5c-3.6,0-7.3-0.7-10.9-2.2l-0.2-0.1c-14.4-6-21.2-22.6-15.2-37c6-14.4,22.6-21.2,37-15.2l0.2,0.1
			c14.4,6,21.3,22.6,15.2,37C1806.2,887.9,1795.7,894.5,1784.6,894.5z M2100.8,873.1c-9.8,0-19.3-5.1-24.5-14.1
			c-7.8-13.5-3.2-30.9,10.3-38.7c13.5-7.9,30.8-3.5,38.8,10c7.9,13.5,3.5,30.8-10,38.8l-0.4,0.2
			C2110.5,871.8,2105.6,873.1,2100.8,873.1z M1726.6,863.8c-5.3,0-10.6-1.5-15.3-4.5l-0.5-0.4c-13-8.7-16.5-26.3-7.9-39.3
			c8.6-13,26.1-16.5,39.1-7.9c13.1,8.5,16.8,26,8.4,39.1C1745,859.2,1735.9,863.8,1726.6,863.8z M2154.1,834.8
			c-7.9,0-15.7-3.3-21.3-9.7c-10.3-11.8-9.1-29.6,2.6-39.9l0.3-0.3c11.8-10.2,29.7-9,39.9,2.8c10.2,11.8,9,29.7-2.8,39.9l-0.1,0.1
			C2167.3,832.5,2160.7,834.8,2154.1,834.8z M1675.3,823.1c-7,0-14.1-2.6-19.6-7.9l-0.2-0.2c-11.3-10.8-11.7-28.7-0.9-40
			c10.8-11.3,28.7-11.7,40-0.9l0.2,0.2c11.3,10.8,11.7,28.7,0.9,40C1690.2,820.1,1682.8,823.1,1675.3,823.1z M2199.3,787.5
			c-6.2,0-12.4-2-17.6-6.2c-12.2-9.7-14.3-27.6-4.5-39.8c9.7-12.3,27.5-14.5,39.8-4.8c12.3,9.7,14.5,27.4,4.8,39.7l-0.3,0.3
			C2215.9,783.8,2207.6,787.5,2199.3,787.5z M1632.4,773.6c-8.8,0-17.5-4.1-23-11.8l-0.1-0.2c-9.1-12.7-6.2-30.4,6.5-39.5
			c12.7-9.1,30.4-6.2,39.5,6.5l0.1,0.2c9.1,12.7,6.2,30.4-6.5,39.5C1643.9,771.9,1638.1,773.6,1632.4,773.6z M2235.1,732.6
			c-4.5,0-9.1-1.1-13.3-3.3c-13.8-7.4-19-24.5-11.6-38.3c7.2-13.9,24.3-19.2,38.2-12c13.9,7.2,19.2,24.4,12,38.2l-0.2,0.5
			C2255,727.2,2245.2,732.6,2235.1,732.6z M1599.3,717c-10.6,0-20.7-6-25.6-16.2c-0.1-0.2-0.2-0.4-0.3-0.6
			c-6.5-14.2-0.2-31,14.1-37.5c14.2-6.4,30.9-0.2,37.4,13.9c6.6,14.1,0.6,31-13.5,37.6C1607.5,716.1,1603.4,717,1599.3,717z
			 M2260.3,672.1c-2.9,0-5.8-0.4-8.7-1.4c-14.8-4.8-23-20.6-18.3-35.5c4.6-14.9,20.4-23.3,35.3-18.8c15,4.6,23.4,20.3,18.9,35.3
			l-0.2,0.7C2283.4,664.5,2272.3,672.1,2260.3,672.1z M1577.2,655.3c-12.7,0-24.2-8.5-27.4-21.4c-3.9-15,5-30.5,20-34.5
			c15.1-4.1,30.6,4.9,34.7,20l0.2,0.7c3.8,15.2-5.4,30.6-20.5,34.4C1581.8,655,1579.5,655.3,1577.2,655.3z M1577.2,627l-27.5,6.9
			l0,0L1577.2,627z M2274,608c-1,0-2-0.1-3.1-0.2c-15.5-1.7-26.8-15.6-25.1-31.2l0.1-0.7c1.9-15.5,16-26.6,31.6-24.6
			c15.5,1.9,26.5,16,24.6,31.5C2300.5,597.3,2288.2,608,2274,608z M2274,579.5l28.1,3.5l0,0L2274,579.5z M1566.6,590.6
			c-14.8,0-27.3-11.6-28.2-26.6c-1.1-15.5,10.6-29,26.1-30.2c15.6-1.2,29.2,10.5,30.4,26.1l0,0.6c1,15.6-10.9,29-26.5,30
			C1567.8,590.6,1567.2,590.6,1566.6,590.6z M1566.7,562.3l-28.3,1.7l0,0L1566.7,562.3z M2275.6,542.5c-14.7,0-27.1-11.3-28.2-26.2
			c0-0.1,0-0.2,0-0.3c-1.2-15.6,10.5-29.2,26.1-30.4c15.6-1.2,29.2,10.5,30.4,26.1c0,0.1,0,0.3,0,0.3c1.2,15.6-10.5,29.2-26.1,30.3
			C2277,542.5,2276.3,542.5,2275.6,542.5z M1568.3,525.1c-1.2,0-2.3-0.1-3.5-0.2c-15.5-1.9-26.5-16-24.6-31.5
			c1.8-15.5,15.7-26.6,31.2-25c15.5,1.7,26.8,15.6,25.1,31.2l-0.1,0.7C1594.6,514.6,1582.4,525.1,1568.3,525.1z M1540.2,493.3
			l28.1,3.5L1540.2,493.3L1540.2,493.3z M2265.1,477.8c-12.5,0-23.9-8.3-27.3-20.9l-0.2-0.7c-3.8-15.2,5.4-30.6,20.5-34.4
			c15.1-3.8,30.5,5.4,34.4,20.5c3.9,15-5,30.5-20,34.5C2270,477.5,2267.5,477.8,2265.1,477.8z M2292.5,442.3l-27.5,6.9L2292.5,442.3
			L2292.5,442.3z M1582,461c-2.7,0-5.5-0.4-8.2-1.2c-15-4.6-23.4-20.3-18.8-35.3l0.2-0.7c4.8-14.9,20.8-23.1,35.6-18.3
			c14.8,4.8,23,20.6,18.3,35.5C1605.3,453.1,1594.1,461,1582,461z M2242.9,416.1c-10.7,0-20.9-6.1-25.7-16.4
			c-6.6-14.1-0.6-31,13.5-37.6c14.1-6.7,31-0.7,37.7,13.4c0.1,0.2,0.2,0.4,0.3,0.6c6.5,14.2,0.2,31-14.1,37.5
			C2250.8,415.3,2246.8,416.1,2242.9,416.1z M1607.1,400.5c-4.5,0-9.1-1.1-13.4-3.4c-13.7-7.4-18.9-24.6-11.5-38.3
			c7.2-13.8,24.2-19.1,38.1-12c13.9,7.2,19.3,24.3,12.1,38.2c-0.1,0.2-0.2,0.4-0.3,0.6C1627,395.1,1617.2,400.5,1607.1,400.5z
			 M1582.2,358.7l24.9,13.4L1582.2,358.7L1582.2,358.7z M2209.9,359.5c-8.8,0-17.5-4.1-23-11.8l-0.1-0.2
			c-9.1-12.7-6.2-30.4,6.5-39.5c12.7-9.1,30.4-6.2,39.5,6.5l0.1,0.2c9.1,12.7,6.2,30.4-6.5,39.5
			C2221.3,357.8,2215.6,359.5,2209.9,359.5z M1643,345.6c-6.1,0-12.3-2-17.5-6c-12.3-9.7-14.4-27.5-4.8-39.8c0,0,0.1-0.2,0.2-0.2
			c9.6-12.3,27.4-14.4,39.7-4.8c12.3,9.7,14.4,27.5,4.8,39.8c0,0-0.1,0.2-0.2,0.2C1659.7,341.9,1651.4,345.6,1643,345.6z
			 M2166.9,310c-7,0-14.1-2.6-19.6-7.9l-0.2-0.2c-11.3-10.8-11.7-28.7-0.9-40c10.8-11.3,28.7-11.7,40-0.9l0.2,0.2
			c11.3,10.8,11.7,28.7,0.9,40C2181.8,307.1,2174.4,310,2166.9,310z M1688.3,298.2c-7.9,0-15.8-3.3-21.4-9.8
			c-10.2-11.8-9-29.7,2.8-39.9l0.1-0.1c11.8-10.3,29.7-9.1,39.9,2.7c10.3,11.8,9.1,29.6-2.6,39.9l-0.3,0.3
			C1701.5,296,1694.9,298.2,1688.3,298.2z M2115.6,269.3c-5.3,0-10.8-1.5-15.5-4.7c-13.1-8.5-16.8-26-8.4-39.1
			c8.5-13.1,26-16.9,39.1-8.4l0.5,0.4c13,8.7,16.5,26.3,7.9,39.3C2133.7,264.9,2124.7,269.3,2115.6,269.3z M1741.6,260.1
			c-9.7,0-19.1-5-24.4-13.9c-7.9-13.5-3.5-30.8,10-38.8l0.4-0.2c13.5-7.8,30.9-3.2,38.7,10.3c7.8,13.5,3.2,30.9-10.3,38.7
			C1751.4,258.8,1746.4,260.1,1741.6,260.1z M2057.6,238.7c-3.6,0-7.2-0.7-10.7-2.1l-0.4-0.2c-14.4-6-21.3-22.6-15.2-37
			c6-14.4,22.6-21.3,37-15.2l0.1,0c14.4,6,21.3,22.5,15.4,37C2079.3,232,2068.8,238.7,2057.6,238.7z M1800.9,232.3
			c-11.6,0-22.5-7.2-26.6-18.7c-5.3-14.7,2.3-30.9,17-36.2l0.2-0.1c14.7-5.3,30.9,2.3,36.3,17c5.3,14.7-2.3,30.9-17,36.3l-0.3,0.1
			C1807.3,231.8,1804.1,232.3,1800.9,232.3z M1995.1,219.1c-2,0-4-0.2-6.1-0.7c-15.3-3.2-25.1-18.3-21.9-33.6
			c3.2-15.3,18.2-25.1,33.5-21.9l0.4,0.1c15.3,3.3,25,18.4,21.6,33.7C2019.9,210.1,2008.1,219.1,1995.1,219.1z M1864.3,215.9
			c-13.7,0-25.7-9.9-27.9-23.8c-2.5-15.4,8-30,23.4-32.5l0.2,0c15.4-2.5,30,7.9,32.5,23.4c2.5,15.4-7.9,30-23.4,32.5l-0.3,0
			C1867.3,215.8,1865.8,215.9,1864.3,215.9z M1930,211.4c-0.3,0-0.6,0-0.9,0c-15.6-0.4-28-13.3-27.7-29c0.4-15.6,13.3-28,28.9-27.7
			l0.4,0c15.6,0.5,27.9,13.5,27.4,29.2C1957.8,199.3,1945.3,211.4,1930,211.4z"/>
	</g>
	<g>
		<path class="st3" d="M1903.2,860.4c-0.6,0-1.2,0-1.8-0.1v0c0,0,0,0,0,0v0c-0.1,0-0.3,0-0.4,0c0,0-0.1,0-0.1,0l-0.2,0
			c-15.5-1-27.2-14.3-26.2-29.7c1-15.5,14.3-27.2,29.7-26.2l0.3,0c0.1,0,0.1,0,0.2,0l0.4,0c15.5,1,27.2,14.3,26.2,29.8
			C1930.2,849,1917.9,860.4,1903.2,860.4z M1966.5,857.5c-13.6,0-25.5-9.9-27.7-23.8c-2.3-15.3,8.2-29.6,23.5-32
			c15.3-2.4,29.7,8,32.1,23.3c2.4,15.3-8,29.6-23.3,32.1l-0.4,0.1C1969.3,857.4,1967.9,857.5,1966.5,857.5z M1839.9,849.6
			c-2.6,0-5.2-0.4-7.7-1.1l-0.2-0.1c-14.9-4.3-23.5-19.8-19.2-34.7c4.3-14.9,19.8-23.5,34.7-19.2l0.2,0.1
			c14.9,4.3,23.5,19.8,19.2,34.7C1863.3,841.6,1852.1,849.6,1839.9,849.6z M2028,840.9c-11.2,0-21.8-6.7-26.1-17.7
			c-5.7-14.4,1.3-30.6,15.7-36.3l0.4-0.1c14.4-5.6,30.7,1.5,36.3,15.9c5.6,14.4-1.5,30.7-15.9,36.3l-0.1,0
			C2034.9,840.3,2031.4,840.9,2028,840.9z M1781,825.5c-4.5,0-9.1-1.1-13.4-3.4l-0.1,0c-13.6-7.3-18.8-24.3-11.5-37.9
			c7.3-13.6,24.3-18.8,38-11.5l0.4,0.2c13.6,7.4,18.6,24.4,11.2,38C1800.5,820.2,1790.9,825.5,1781,825.5z M2084.3,811.5
			c-9,0-17.7-4.3-23.2-12.2c-8.7-12.8-5.4-30.2,7.3-39l0.5-0.4c12.9-8.5,30.3-5,38.8,7.9c8.5,12.9,5,30.3-7.9,38.8
			C2095.2,810,2089.7,811.5,2084.3,811.5z M2084.5,783.4l15.4,23.4l0,0L2084.5,783.4z M1728.7,789.3c-6.5,0-13-2.2-18.3-6.8
			l-0.2-0.1c-11.7-10.1-13-27.8-2.9-39.5c10.1-11.7,27.8-13,39.5-2.9l0.2,0.1c11.7,10.1,13,27.8,2.9,39.5
			C1744.3,786,1736.5,789.3,1728.7,789.3z M2133.1,770.7c-7,0-14-2.6-19.4-7.8c-11.2-10.7-11.6-28.4-0.9-39.6l0.3-0.3
			c10.8-11.1,28.5-11.4,39.6-0.7c11.1,10.8,11.4,28.5,0.7,39.6l-0.1,0.1C2147.9,767.8,2140.5,770.7,2133.1,770.7z M1685.3,742.8
			c-8.6,0-17-3.9-22.5-11.3l-0.1-0.1c-9.3-12.4-6.8-30,5.6-39.2c12.4-9.3,29.9-6.8,39.2,5.5l0.2,0.3c9.3,12.4,6.7,30-5.7,39.2
			C1697,741,1691.2,742.8,1685.3,742.8z M2172,720.4c-5.1,0-10.2-1.4-14.8-4.3c-13.1-8.2-17.1-25.5-8.9-38.6
			c8.1-13.2,25.3-17.4,38.5-9.3c13.2,8.1,17.4,25.3,9.3,38.6l-0.3,0.4C2190.5,715.7,2181.4,720.4,2172,720.4z M1653,688
			c-10.7,0-20.9-6.1-25.6-16.5l-0.1-0.2c-6.4-14.1-0.1-30.7,14-37.1c14.1-6.4,30.7-0.1,37.1,14l0.1,0.2c6.4,14.1,0.1,30.7-14,37.1
			C1660.7,687.2,1656.8,688,1653,688z M2199.2,662.9c-2.9,0-5.9-0.5-8.9-1.4c-14.7-4.9-22.6-20.8-17.7-35.5l0.2-0.6
			c5.1-14.6,21.1-22.3,35.7-17.2c14.6,5.1,22.3,21.1,17.2,35.7C2221.8,655.5,2210.9,662.9,2199.2,662.9z M2199.3,634.6l26.4,9.3l0,0
			L2199.3,634.6z M1633.1,627.6c-13,0-24.6-9.1-27.4-22.3l0-0.2c-3.2-15.2,6.5-30,21.7-33.2c15.2-3.2,30,6.5,33.2,21.7l0,0.2
			c3.2,15.2-6.5,30-21.7,33.2C1636.9,627.4,1635,627.6,1633.1,627.6z M2213.4,600.8c-1.2,0-2.4-0.1-3.6-0.2
			c-15.3-1.9-26.1-15.9-24.3-31.2c1.8-15.3,15.6-26.4,31-24.7c15.4,1.7,26.5,15.5,24.8,30.9l-0.1,0.7
			C2239.4,590.5,2227.3,600.8,2213.4,600.8z M1626.8,564.3c-0.2,0-0.3,0-0.5,0c-15.5-0.2-27.8-13-27.6-28.4
			c0.1-15.4,12.6-27.9,28-27.9c15.5,0,28,12.6,28,28l0,0.7C1654.6,552,1642.1,564.3,1626.8,564.3z M1598.8,535.8l28,0.4
			L1598.8,535.8L1598.8,535.8z M2213.9,537.2c-14.1,0-26.2-10.6-27.8-25l-0.1-0.6c-1.5-15.4,9.8-29.1,25.2-30.6
			c15.4-1.5,29.1,9.8,30.6,25.2c1.6,15.3-9.5,29.1-24.8,30.8C2215.9,537.2,2214.9,537.2,2213.9,537.2z M2241.8,506.3l-27.9,2.7
			L2241.8,506.3L2241.8,506.3L2241.8,506.3z M1634.2,501.1c-2,0-4.1-0.2-6.2-0.7c-15.1-3.4-24.6-18.4-21.2-33.5l0.1-0.3
			c3.4-15.1,18.5-24.5,33.6-21.1c15.1,3.4,24.5,18.5,21.1,33.6l0,0.2C1658.6,492.2,1647,501.1,1634.2,501.1z M2200.8,475
			c-11.9,0-22.9-7.6-26.7-19.4c-4.8-14.7,3.1-30.5,17.8-35.4c14.7-4.9,30.5,3,35.4,17.7l0.2,0.6c4.7,14.8-3.5,30.5-18.3,35.2
			C2206.4,474.6,2203.6,475,2200.8,475z M1654.9,440.9c-4,0-8-0.9-11.9-2.7c-14-6.6-20-23.2-13.5-37.3l0.3-0.6
			c6.8-13.9,23.6-19.7,37.5-12.9c13.9,6.8,19.7,23.5,13,37.4C1675.5,435,1665.4,440.9,1654.9,440.9z M2174.5,417.1
			c-9.5,0-18.7-4.8-24-13.5l-0.3-0.5c-7.8-13.4-3.4-30.5,10-38.4c13.3-7.8,30.5-3.4,38.4,10c7.9,13.2,3.7,30.4-9.5,38.4
			C2184.5,415.8,2179.5,417.1,2174.5,417.1z M2198.5,374.6l-24.2,14.2L2198.5,374.6L2198.5,374.6L2198.5,374.6z M1688.2,386.7
			c-6,0-12.1-1.9-17.2-5.9c-12.2-9.5-14.4-27.1-4.9-39.3l0.1-0.1c9.5-12.2,27.1-14.5,39.3-5c12.2,9.5,14.5,27,5,39.3l-0.2,0.3
			C1704.8,383,1696.6,386.7,1688.2,386.7z M2136.4,366.1c-7.4,0-14.8-2.9-20.3-8.7l-0.5-0.5c-10.5-11.4-9.8-29.1,1.5-39.6
			c11.4-10.5,29.1-9.8,39.6,1.5c10.6,11.2,10.1,28.8-1,39.5C2150.3,363.5,2143.4,366.1,2136.4,366.1z M2156.8,318.9l-20.6,19
			L2156.8,318.9L2156.8,318.9L2156.8,318.9z M1732.4,340.9c-8.1,0-16.1-3.5-21.6-10.2c-9.9-11.9-8.2-29.6,3.7-39.4
			c11.8-9.9,29.4-8.5,39.4,3.2c10.1,11.8,8.7,29.5-3.1,39.5l-0.5,0.4C1745,338.8,1738.7,340.9,1732.4,340.9z M1714.5,291.2
			l17.9,21.6L1714.5,291.2L1714.5,291.2L1714.5,291.2z M2088.3,324.5c-5.5,0-11-1.6-15.9-4.9l-0.2-0.2c-12.7-8.8-15.9-26.3-7.1-39
			c8.8-12.7,26.3-15.9,39-7.1l0.1,0.1c12.8,8.8,16,26.2,7.2,39C2105.9,320.2,2097.2,324.5,2088.3,324.5z M1785.3,305.6
			c-10.1,0-19.9-5.5-24.9-15.1c-7.1-13.7-1.7-30.7,12-37.8l0.1,0c13.7-7.2,30.6-2,37.8,11.7c7.2,13.7,1.9,30.7-11.8,37.9l-0.4,0.2
			C1794.1,304.6,1789.7,305.6,1785.3,305.6z M2032.3,294.2c-3.5,0-7.1-0.7-10.6-2.1l-0.2-0.1c-14.3-5.8-21.2-22.2-15.4-36.5
			c5.8-14.3,22.2-21.2,36.5-15.4l0.2,0.1c14.3,5.8,21.2,22.2,15.4,36.5C2053.9,287.6,2043.4,294.2,2032.3,294.2z M1844.6,282.4
			c-12.4,0-23.7-8.2-27.1-20.7c-4-14.9,4.7-30.3,19.7-34.4l0.3-0.1c15-4,30.3,4.9,34.3,19.9c4,15-4.9,30.3-19.9,34.3
			C1849.5,282.1,1847.1,282.4,1844.6,282.4z M1971.2,276.7c-1.6,0-3.3-0.1-4.9-0.4c-15.3-2.5-25.6-17-23-32.3s17-25.6,32.3-23
			l0.5,0.1c15.2,2.7,25.4,17.3,22.7,32.5C1996.3,267.1,1984.5,276.7,1971.2,276.7z M1907.4,272.7c-14.9,0-27.3-11.7-28-26.7
			c-0.7-15.5,11.2-28.6,26.7-29.3l0.4,0c15.5-0.6,28.5,11.4,29.1,26.9c0.6,15.5-11.4,28.5-26.9,29.1
			C1908.3,272.7,1907.9,272.7,1907.4,272.7z"/>
	</g>
	<path class="st3" d="M1898.1,797.7c-0.6,0-1.2,0-1.9-0.1l1.8-18.4l-1.9,18.4c-10.2-0.9-17.7-9.9-16.8-20.1
		c0.9-10.2,9.9-17.7,20.1-16.9l0.4,0c10.2,1,17.6,10.1,16.6,20.3C1915.5,790.5,1907.5,797.7,1898.1,797.7z M1946.8,797.4
		c-9.4,0-17.5-7.2-18.4-16.7c-1-10.2,6.5-19.3,16.6-20.3c10.2-1.1,19.3,6.2,20.4,16.4c1.1,10.2-6.2,19.3-16.4,20.5l-0.4,0
		C1948,797.4,1947.4,797.4,1946.8,797.4z M1850,788c-1.8,0-3.6-0.3-5.4-0.8l-0.3-0.1c-9.8-3.1-15.2-13.5-12.1-23.2
		c3.1-9.8,13.5-15.2,23.2-12.1c9.8,3,15.3,13.4,12.3,23.2C1865.3,782.9,1858,788,1850,788z M1994.7,787.3c-7.9,0-15.3-5.1-17.7-13.1
		c-3-9.8,2.5-20.1,12.2-23.1c0,0,0.1,0,0.1,0c0,0,0.1,0,0.1,0c9.7-3.2,20.2,2.1,23.4,11.9c3.2,9.7-2.1,20.2-11.9,23.4l-0.3,0.1
		c0,0-0.1,0-0.1,0l-0.4,0.1C1998.4,787,1996.5,787.3,1994.7,787.3z M1804.9,769c-3,0-6.1-0.7-8.9-2.3l8.9-16.2l-9,16.2
		c-9-4.8-12.4-16.1-7.5-25.1c4.8-9,16.1-12.4,25.1-7.5l0.3,0.2c9,4.9,12.2,16.2,7.3,25.2C1817.8,765.5,1811.5,769,1804.9,769z
		 M2040,767.6c-6.5,0-12.8-3.4-16.2-9.4c-5-8.9-1.9-20.2,7-25.3l0.2-0.1c8.9-5,20.2-1.9,25.2,7.1s1.9,20.2-7.1,25.2l-0.1,0.1
		C2046.2,766.8,2043,767.6,2040,767.6z M1764.6,741.3c-4.2,0-8.4-1.4-11.9-4.4l-0.2-0.2c-7.8-6.6-8.7-18.3-2.1-26.1
		s18.3-8.7,26.1-2.1c7.8,6.6,8.8,18.3,2.2,26.1C1775.1,739,1769.8,741.3,1764.6,741.3z M2080,739.4c-5.2,0-10.3-2.2-14-6.4
		c-6.7-7.7-5.9-19.4,1.9-26.2c7.7-6.8,19.4-6,26.2,1.6c6.8,7.7,6,19.4-1.6,26.2l-0.2,0.2C2088.6,737.9,2084.3,739.4,2080,739.4z
		 M1730.6,706c-5.5,0-10.9-2.4-14.5-7.1l-0.2-0.2c-6.3-8.1-4.8-19.7,3.3-26c8.1-6.3,19.7-4.8,26,3.3c6.3,8,5,19.7-3.1,26.1
		C1738.7,704.7,1734.7,706,1730.6,706z M2113.4,703.7c-3.8,0-7.7-1.2-11-3.6c-8.2-6.1-10-17.7-3.9-25.9c0.1-0.2,0.2-0.3,0.4-0.5
		c6.3-8.1,17.9-9.5,26-3.3c8.1,6.3,9.5,17.9,3.3,26C2124.5,701.1,2119,703.7,2113.4,703.7z M2113.5,685l14.6,11.4l0,0L2113.5,685z
		 M1704.6,664.6c-6.8,0-13.4-3.8-16.6-10.3c-4.6-9.1-1-20.2,8.1-24.9c9.1-4.7,20.3-1.1,25,8l0.2,0.4c4.5,9.2,0.8,20.3-8.4,24.8
		C1710.1,664,1707.3,664.6,1704.6,664.6z M1700.3,648.2l-0.6,0.3l4.8-2.4L1700.3,648.2z M2139,662c-2.6,0-5.3-0.6-7.8-1.7
		c-9.3-4.3-13.3-15.3-9-24.6l0.2-0.5c4.5-9.2,15.6-13,24.8-8.5c9.2,4.5,13,15.6,8.6,24.7C2152.6,658,2146,662,2139,662z
		 M2139.1,643.3l16.7,8.1l0,0L2139.1,643.3z M1687.3,618.8c-8.1,0-15.6-5.4-17.9-13.7l-0.1-0.5c-2.5-9.9,3.6-20,13.5-22.5
		c9.9-2.5,19.9,3.5,22.4,13.3c2.6,9.9-3.2,20-13,22.7C1690.5,618.6,1688.9,618.8,1687.3,618.8z M2155.8,616c-1.5,0-3-0.2-4.5-0.5
		c-9.9-2.5-16-12.5-13.5-22.4l0.1-0.2c2.5-9.9,12.6-16,22.5-13.5c9.9,2.5,16,12.5,13.5,22.5l0,0.1
		C2171.7,610.3,2164.1,616,2155.8,616z M1679.5,570.5c-9.7,0-17.8-7.5-18.5-17.3c0-0.2,0-0.4,0-0.6c-0.5-10.2,7.5-18.9,17.7-19.3
		c10.2-0.4,18.8,7.4,19.3,17.5c0.6,10.2-7.1,19-17.3,19.6C1680.3,570.5,1679.9,570.5,1679.5,570.5z M2162.9,567.5
		c-0.3,0-0.5,0-0.8,0c-10.2-0.4-18.2-9.1-17.7-19.3l0-0.2c0.5-10.2,9.1-18.1,19.3-17.7c10.2,0.4,18.2,9.1,17.7,19.3l0,0.2
		C2181,559.8,2172.8,567.5,2162.9,567.5z M1681.7,521.6c-0.9,0-1.9-0.1-2.9-0.2c-10.1-1.6-17-11-15.5-21.1
		c1.4-10,10.7-17.1,20.8-15.8c10.2,1.3,17.3,10.7,16,20.8c0,0.2-0.1,0.4-0.1,0.6C1698.6,515,1690.7,521.6,1681.7,521.6z
		 M1663.4,500.2l18.3,2.8L1663.4,500.2L1663.4,500.2z M2160.1,518.6c-8.8,0-16.6-6.3-18.2-15.3c0-0.2-0.1-0.4-0.1-0.6
		c-1.6-10.1,5.4-19.6,15.5-21.2c10.1-1.6,19.6,5.3,21.2,15.4c1.7,10-5,19.5-15,21.3C2162.3,518.6,2161.2,518.6,2160.1,518.6z
		 M2178.4,497.1l-18.3,2.8L2178.4,497.1L2178.4,497.1z M1693.7,474.1c-2.1,0-4.3-0.4-6.5-1.2c-9.6-3.6-14.5-14.2-10.9-23.8
		c3.5-9.6,14-14.6,23.6-11.2c9.7,3.4,14.7,14,11.3,23.7l-0.2,0.4C1708.3,469.5,1701.3,474.1,1693.7,474.1z M1690,454.2l3.7,1.4
		L1690,454.2z M2147.5,471.3c-7.5,0-14.6-4.6-17.4-12l-0.1-0.1c-3.6-9.6,1.2-20.3,10.8-23.9c9.6-3.6,20.3,1.2,23.9,10.8l0.1,0.1
		c3.6,9.6-1.2,20.3-10.8,23.9C2151.9,471,2149.7,471.3,2147.5,471.3z M1715,430c-3.3,0-6.7-0.9-9.8-2.8c-8.7-5.4-11.3-16.8-6-25.5
		c5.3-8.7,16.5-11.5,25.3-6.4c8.8,5.2,11.8,16.6,6.6,25.4c-0.1,0.2-0.2,0.4-0.3,0.5C1727.3,426.9,1721.2,430,1715,430z
		 M1699.3,401.7l15.7,9.8L1699.3,401.7L1699.3,401.7z M2125.8,427.5c-6.1,0-12-3-15.6-8.4l-0.3-0.4c-5.4-8.7-2.8-20.1,5.9-25.5
		c8.7-5.4,20.1-2.8,25.5,5.9c5.5,8.6,3,20-5.5,25.5C2132.7,426.5,2129.2,427.5,2125.8,427.5z M2141.4,399l-15.7,9.8L2141.4,399
		L2141.4,399z M1744.7,391.1c-4.6,0-9.1-1.7-12.7-5c-7.5-7-7.8-18.7-0.8-26.2l13.5,12.7l-13.5-12.7c7-7.5,18.7-7.9,26.2-0.9
		c7.5,7,7.9,18.6,1,26.1l-0.2,0.2C1754.6,389.2,1749.7,391.1,1744.7,391.1z M2095.5,389c-4.8,0-9.6-1.9-13.3-5.6l-0.2-0.2
		c-7.1-7.4-6.8-19.1,0.6-26.2c7.4-7.1,19.1-6.8,26.2,0.6l-13.4,12.8l13.4-12.8c7.1,7.4,6.9,19.1-0.5,26.2
		C2104.8,387.2,2100.1,389,2095.5,389z M1781.7,359c-5.8,0-11.6-2.7-15.2-7.9c-5.9-8.4-3.9-19.9,4.5-25.8l0.2-0.1
		c8.4-5.9,20-3.8,25.8,4.6c5.9,8.4,3.8,20-4.6,25.8C1789.1,357.9,1785.4,359,1781.7,359z M2058.2,357.4c-3.6,0-7.3-1.1-10.5-3.2
		l-0.2-0.1c-8.4-5.8-10.6-17.4-4.7-25.8c5.8-8.4,17.4-10.6,25.8-4.7l0.1,0.1c8.5,5.8,10.6,17.3,4.8,25.8
		C2069.9,354.5,2064.1,357.4,2058.2,357.4z M1824.3,335c-7.2,0-14-4.2-17-11.2c-4-9.4,0.3-20.3,9.7-24.3c9.3-4.1,20.2,0.1,24.4,9.3
		c4.2,9.3,0.1,20.3-9.3,24.5l-0.5,0.2C1829.2,334.5,1826.7,335,1824.3,335z M1817,299.4l7.3,17L1817,299.4L1817,299.4z
		 M2015.2,333.9c-2.4,0-4.9-0.5-7.3-1.5c-9.5-3.9-13.9-14.8-10-24.2c3.9-9.5,14.8-13.9,24.3-10l0.3,0.1c9.4,4,13.8,14.9,9.7,24.3
		C2029.3,329.7,2022.4,333.9,2015.2,333.9z M1870.9,320.1c-8.6,0-16.3-6-18.1-14.7c-2.1-10,4.3-19.9,14.3-22l0.1,0
		c10-2.2,19.9,4.2,22,14.2c2.2,10-4.2,19.9-14.2,22l-0.2,0.1C1873.4,319.9,1872.2,320.1,1870.9,320.1z M1968.5,319.4
		c-1.2,0-2.5-0.1-3.7-0.4c-10-2-16.6-11.8-14.6-21.8c2-10,11.7-16.6,21.8-14.6l0.2,0c10,2.1,16.5,11.8,14.4,21.9
		C1984.8,313.4,1977.1,319.4,1968.5,319.4z M1919.5,314.8c-10.1,0-18.4-8.2-18.5-18.3c-0.1-10.2,8.1-18.6,18.4-18.7l0.4,0
		c10.2,0,18.5,8.3,18.5,18.5c0,10.2-8.3,18.5-18.5,18.5C1919.7,314.8,1919.6,314.8,1919.5,314.8z"/>
	<g>
		<path class="st3" d="M1942.3,741.4c-6.9,0-13-5.2-13.8-12.3c-0.9-7.6,4.5-14.5,12.1-15.3c0,0,0.1,0,0.1,0
			c7.6-0.9,14.5,4.6,15.4,12.2c0.9,7.6-4.5,14.4-12.1,15.4c0,0-0.1,0-0.2,0C1943.4,741.4,1942.8,741.4,1942.3,741.4z M1898.2,741.2
			c-0.5,0-1.1,0-1.7-0.1l-0.3,0c-7.6-1-13-7.9-12-15.5s7.9-13,15.5-12c7.6,0.9,13,7.8,12.1,15.4
			C1911.1,736.1,1905.1,741.2,1898.2,741.2z M1985.3,731.4c-5.7,0-11.1-3.6-13.1-9.3c-2.5-7.2,1.2-15.1,8.5-17.7c0,0,0,0,0,0
			c0.1,0,0.1-0.1,0.2-0.1c7.2-2.6,15.1,1.1,17.8,8.3c2.6,7.2-1.1,15.1-8.3,17.7l-0.2,0.1c0,0,0,0-0.1,0l-0.3,0.1
			C1988.4,731.2,1986.9,731.4,1985.3,731.4z M1855.2,730.8c-1.6,0-3.2-0.3-4.7-0.8l-0.4-0.1c-7.1-2.7-10.7-10.8-8-17.9
			c2.7-7.1,10.8-10.7,17.9-8c7.2,2.6,10.9,10.5,8.2,17.7C1866.2,727.3,1860.9,730.8,1855.2,730.8z M2025.2,711.7
			c-4.5,0-8.9-2.2-11.6-6.3c-4.2-6.4-2.4-15,4-19.2l0.1-0.1c6.4-4.2,15-2.4,19.2,4c4.2,6.4,2.4,15-4,19.2l-0.1,0.1
			C2030.4,711,2027.8,711.7,2025.2,711.7z M1815.7,710.8c-2.6,0-5.2-0.7-7.5-2.3l-0.4-0.3c-6.3-4.3-7.9-12.9-3.6-19.3
			c4.3-6.3,12.9-7.9,19.2-3.7c6.4,4.2,8.1,12.8,4,19.2C1824.7,708.6,1820.2,710.8,1815.7,710.8z M2059.2,683.4
			c-3.4,0-6.8-1.2-9.5-3.8c-5.6-5.2-5.8-14-0.6-19.6l0.2-0.2c5.3-5.5,14.1-5.7,19.6-0.4c5.5,5.3,5.7,14.1,0.4,19.6l0,0
			C2066.5,681.9,2062.9,683.4,2059.2,683.4z M1781.9,682.2c-3.7,0-7.3-1.5-10.1-4.3l-0.2-0.2c-5.2-5.6-4.9-14.4,0.8-19.6
			c5.6-5.2,14.4-4.9,19.6,0.8c5.2,5.6,5,14.4-0.6,19.6C1788.8,681,1785.4,682.2,1781.9,682.2z M2085.7,648c-2.4,0-4.8-0.6-7-1.9
			c-6.6-3.9-8.8-12.4-4.9-19c3.8-6.7,12.2-8.9,18.9-5.2c6.7,3.8,9,12.3,5.2,18.9l-0.2,0.4C2095,645.6,2090.4,648,2085.7,648z
			 M1755.7,646.6c-4.8,0-9.5-2.5-12.1-7l-0.1-0.1c-3.8-6.7-1.4-15.1,5.2-18.9c6.7-3.8,15.1-1.4,18.9,5.2l0.1,0.1
			c3.8,6.7,1.4,15.1-5.2,18.9C1760.4,646.1,1758.1,646.6,1755.7,646.6z M2103.4,607.5c-1.3,0-2.6-0.2-3.9-0.5
			c-7.3-2.1-11.6-9.8-9.5-17.2l0.1-0.5c2.3-7.3,10.1-11.4,17.4-9.1c7.3,2.3,11.3,10.1,9.1,17.3
			C2114.9,603.6,2109.4,607.5,2103.4,607.5z M2103.5,593.5l13.2,4.2l0,0L2103.5,593.5z M1738.4,605.9c-6,0-11.5-3.9-13.3-10
			c-2.2-7.3,1.8-15,9.1-17.2c7.3-2.3,15.1,1.8,17.4,9.1l0.1,0.5c2.1,7.3-2.1,15-9.5,17.2C1741,605.8,1739.7,605.9,1738.4,605.9z
			 M1738.4,592.1l-13.3,3.8l0,0L1738.4,592.1z M2111.3,564c-0.3,0-0.6,0-0.9,0c-7.6-0.5-13.4-7.1-12.9-14.7l0-0.2
			c0.5-7.6,7.1-13.4,14.7-12.9c7.6,0.5,13.4,7.1,12.9,14.7l0,0.2C2124.7,558.3,2118.6,564,2111.3,564z M1730.8,562.3
			c-7.2,0-13.3-5.6-13.8-12.9l0-0.5c-0.3-7.6,5.6-14.1,13.3-14.4c7.6-0.3,14,5.6,14.4,13.1c0.4,7.6-5.3,14.2-12.9,14.7
			C1731.4,562.3,1731.1,562.3,1730.8,562.3z M2108.9,519.8c-6.6,0-12.5-4.7-13.6-11.5l0-0.2c-1.3-7.5,3.7-14.7,11.3-16
			c7.5-1.3,14.7,3.7,16,11.3l0,0.2c1.3,7.5-3.7,14.7-11.3,16C2110.5,519.7,2109.7,519.8,2108.9,519.8z M1733.6,518.2
			c-0.8,0-1.6-0.1-2.4-0.2c-7.5-1.3-12.6-8.5-11.3-16l0.1-0.4c1.5-7.5,8.7-12.4,16.3-10.9c7.5,1.5,12.4,8.7,11,16.2
			C1746.1,513.5,1740.2,518.2,1733.6,518.2z M2096.4,477.4c-5.3,0-10.4-3.1-12.7-8.2l-0.2-0.5c-3-7.1,0.4-15.2,7.4-18.1
			c7-3,15.2,0.4,18.1,7.4c3,7-0.1,15.1-7,18.2C2100.2,477,2098.3,477.4,2096.4,477.4z M2109.1,458l-12.8,5.3L2109.1,458L2109.1,458z
			 M1746.5,475.9c-1.9,0-3.8-0.4-5.6-1.2c-7-3.1-10.1-11.3-7-18.3c3-7,11.1-10.2,18.1-7.3c7.1,3,10.4,11.1,7.4,18.1l-0.2,0.5
			C1756.9,472.8,1751.8,475.9,1746.5,475.9z M1733.9,456.4l12.6,5.7L1733.9,456.4L1733.9,456.4z M2074.5,439c-4.3,0-8.5-2-11.3-5.8
			c-4.6-6.1-3.3-14.8,2.8-19.4c6.1-4.6,14.8-3.3,19.4,2.8l0.2,0.3c4.5,6.2,3.1,14.9-3.1,19.3C2080.1,438.1,2077.3,439,2074.5,439z
			 M1768.8,437.7c-2.9,0-5.8-0.9-8.3-2.8c-6.1-4.6-7.3-13.3-2.7-19.4l0-0.1c4.6-6.1,13.3-7.4,19.4-2.8c6.1,4.6,7.4,13.2,2.8,19.4
			l-0.2,0.2C1777.1,435.8,1773,437.7,1768.8,437.7z M2044.3,406.7c-3.2,0-6.4-1.1-9-3.3c-5.9-4.9-6.7-13.6-1.8-19.5
			c4.9-5.9,13.6-6.7,19.5-1.8l0.3,0.2c5.8,5,6.5,13.7,1.5,19.5C2052.1,405,2048.2,406.7,2044.3,406.7z M1799.2,405.6
			c-4,0-8-1.7-10.7-5.1c-4.8-5.9-4-14.6,1.9-19.5c5.8-4.9,14.5-4.2,19.4,1.6c5,5.8,4.3,14.6-1.5,19.5l-0.4,0.3
			C1805.4,404.6,1802.3,405.6,1799.2,405.6z M1797.2,389.2l2.1,2.5L1797.2,389.2z M2007.4,382.2c-2.1,0-4.3-0.5-6.3-1.5
			c-6.8-3.4-9.6-11.7-6.2-18.6c3.4-6.8,11.7-9.6,18.6-6.2l0.3,0.1c6.8,3.5,9.5,11.8,6,18.6C2017.3,379.5,2012.4,382.2,2007.4,382.2z
			 M1836.3,381.5c-5.1,0-10.1-2.9-12.5-7.8c-3.4-6.9-0.5-15.2,6.4-18.5c6.8-3.4,15.1-0.7,18.6,6.1c3.5,6.8,0.8,15.2-6,18.6l-0.4,0.2
			C1840.4,381,1838.3,381.5,1836.3,381.5z M1834.3,363.5l2,4.1L1834.3,363.5z M1966,366.9c-1.1,0-2.2-0.1-3.2-0.4l-0.2-0.1
			c-7.4-1.8-12-9.3-10.2-16.7c1.8-7.4,9.3-12,16.7-10.2l0.1,0c7.4,1.8,12,9.3,10.3,16.7C1977.9,362.6,1972.2,366.9,1966,366.9z
			 M1877.9,366.5c-6.3,0-12-4.3-13.5-10.7c-1.7-7.4,2.9-14.9,10.3-16.6l0.1,0c7.4-1.8,14.9,2.8,16.7,10.2
			c1.8,7.4-2.8,14.9-10.3,16.7l-0.2,0.1C1880,366.4,1879,366.5,1877.9,366.5z M1922,361.5c-0.1,0-0.1,0-0.2,0
			c-7.7,0-13.9-6.2-13.9-13.9c0-7.6,6.2-13.9,13.8-13.9l0.3,0c7.6,0.1,13.8,6.4,13.7,14C1935.8,355.4,1929.6,361.5,1922,361.5z"/>
	</g>
	<g>
		<path class="st3" d="M1918,689.9c-0.1,0-0.2,0-0.3,0l-0.2,0c-7.6-0.2-13.7-6.5-13.5-14.1c0.2-7.6,6.5-13.7,14.1-13.5l0.2,0
			c7.6,0.2,13.7,6.5,13.6,14.1C1931.7,683.9,1925.5,689.9,1918,689.9z M1967.5,681.9c-5.6,0-10.9-3.5-13-9c-2.7-7.2,1-15.2,8.2-17.8
			l0.4-0.1c0.7-0.2,1.3-0.4,2-0.5c0.6-0.3,1.2-0.6,1.8-0.9l0.3-0.1c7.1-2.8,15.2,0.7,18,7.8c2.8,7.1-0.7,15.2-7.8,18l-0.4-0.9
			c0,0,0,0,0,0l0.3,0.9c-0.8,0.3-1.7,0.6-2.5,0.7c-0.8,0.5-1.6,0.8-2.5,1.1l-0.3-0.9c0,0,0,0,0,0l0.3,0.9
			C1970.7,681.6,1969.1,681.9,1967.5,681.9z M1868.6,679.6c-1.7,0-3.5-0.3-5.2-1l-0.3-0.1c-7.1-3-10.4-11.1-7.4-18.1
			c3-7.1,11.1-10.4,18.1-7.4c7.1,2.9,10.5,11,7.6,18.1C1879.3,676.3,1874.1,679.6,1868.6,679.6z M2014.8,653.3
			c-3.7,0-7.4-1.5-10.2-4.4c-5.2-5.6-4.9-14.4,0.7-19.6l0.1-0.1c5.6-5.2,14.4-4.9,19.6,0.7c5.2,5.6,4.9,14.4-0.7,19.6l-0.1,0.1
			C2021.5,652.1,2018.1,653.3,2014.8,653.3z M1826.3,652.2c-3.4,0-6.8-1.2-9.5-3.8l-0.2-0.2c-5.5-5.3-5.7-14.1-0.5-19.6
			c5.3-5.5,14.1-5.7,19.6-0.5c5.6,5.2,5.9,14,0.6,19.6C1833.7,650.7,1830,652.2,1826.3,652.2z M2044.8,612.9c-2.1,0-4.2-0.5-6.2-1.5
			c-6.8-3.4-9.6-11.7-6.2-18.6c3.3-6.9,11.6-9.8,18.5-6.4c6.9,3.3,9.8,11.6,6.5,18.5l-0.2,0.3
			C2054.8,610.1,2049.9,612.9,2044.8,612.9z M1796.7,611.5c-5.2,0-10.1-2.9-12.5-7.9l-0.1-0.1c-3.3-6.9-0.4-15.2,6.6-18.5
			c6.9-3.3,15.2-0.4,18.5,6.6l0.1,0.1c3.3,6.9,0.4,15.2-6.6,18.5C1800.7,611,1798.7,611.5,1796.7,611.5z M2058.5,564.4
			c-0.4,0-0.8,0-1.2-0.1c-7.6-0.7-13.3-7.4-12.6-15l0-0.1c0.7-7.6,7.4-13.3,15-12.6c7.6,0.7,13.3,7.4,12.6,15l0,0.2
			C2071.7,559,2065.6,564.4,2058.5,564.4z M1783.6,562.8c-7.1,0-13.2-5.4-13.8-12.6l0-0.4c-0.5-7.6,5.3-14.2,12.9-14.7
			c7.6-0.5,14.2,5.2,14.7,12.8c0.6,7.6-5,14.3-12.6,14.9C1784.4,562.7,1784,562.8,1783.6,562.8z M2053.7,514.2
			c-6,0-11.5-3.9-13.3-10l0-0.1c-2.1-7.3,2.1-15,9.4-17.2c7.3-2.1,15,2.1,17.2,9.4l0.1,0.2c2.1,7.3-2.1,15-9.5,17.2
			C2056.3,514.1,2055,514.2,2053.7,514.2z M1789,512.7c-1.3,0-2.6-0.2-3.9-0.6c-7.3-2.2-11.6-9.8-9.4-17.2l0.1-0.4
			c2.3-7.3,10.1-11.4,17.4-9.1c7.3,2.3,11.3,10,9.1,17.3C1800.5,508.7,1795,512.7,1789,512.7z M2031.3,469.1
			c-4.2,0-8.4-1.9-11.1-5.6c-4.6-6.1-3.4-14.8,2.7-19.4c6.1-4.6,14.8-3.4,19.4,2.7l0.2,0.2c4.6,6.2,3.3,14.8-2.9,19.4
			C2037,468.2,2034.2,469.1,2031.3,469.1z M1812,467.8c-2.9,0-5.9-0.9-8.4-2.9c-6.1-4.7-7.2-13.3-2.6-19.4l0.2-0.2
			c4.7-6,13.4-7.1,19.4-2.4c6,4.7,7.1,13.4,2.4,19.4C1820.3,465.9,1816.1,467.8,1812,467.8z M1994.1,435.1c-2.5,0-4.9-0.7-7.2-2
			l-0.3-0.2c-6.5-4.1-8.4-12.6-4.4-19.1c4.1-6.5,12.6-8.4,19.1-4.4l-7.4,11.7l7.4-11.7c6.5,4,8.5,12.6,4.5,19.1
			C2003.2,432.7,1998.7,435.1,1994.1,435.1z M1849.5,434.2c-4.7,0-9.3-2.4-11.9-6.7c-3.9-6.6-1.8-15.1,4.8-19l7.1,11.9l-7.1-11.9
			c6.5-3.9,15.1-1.9,19,4.6c4,6.5,2,15-4.5,19l-0.3,0.2C1854.4,433.6,1852,434.2,1849.5,434.2z M1947.2,416.7
			c-0.9,0-1.7-0.1-2.6-0.2l-0.2,0c-7.5-1.5-12.4-8.7-10.9-16.3c1.5-7.5,8.8-12.4,16.3-10.9l0.1,0c7.5,1.4,12.5,8.7,11,16.2
			C1959.6,412,1953.7,416.7,1947.2,416.7z M1896.7,416.4c-6.6,0-12.4-4.7-13.6-11.3c-1.4-7.5,3.5-14.7,11.1-16.1l0.3,0
			c7.5-1.3,14.7,3.7,16.1,11.2s-3.7,14.7-11.2,16.1C1898.4,416.3,1897.5,416.4,1896.7,416.4z"/>
	</g>
	<g>
		<path class="st3" d="M1904.4,639.2c-0.9,0-1.8-0.1-2.7-0.3l-0.1,0c-7.5-1.4-12.5-8.7-11-16.2c1.4-7.5,8.7-12.5,16.2-11l0.2,0
			c7.5,1.5,12.4,8.7,10.9,16.3C1916.7,634.6,1910.9,639.2,1904.4,639.2z M1950.8,635.6c-5.6,0-10.9-3.5-13-9
			c-2.7-7.2,1-15.2,8.2-17.8l0.4-0.1c7.2-2.5,15.1,1.2,17.7,8.5c2.5,7.2-1.2,15.1-8.5,17.7l-4.6-13.1l4.6,13.1
			C1954.1,635.3,1952.4,635.6,1950.8,635.6z M1862.3,618.4c-3.2,0-6.5-1.1-9.1-3.4l-0.4-0.3c-5.7-5.2-6.1-13.9-0.9-19.6
			c5.1-5.6,13.8-6.1,19.5-1c5.7,5,6.3,13.8,1.3,19.5C1870,616.8,1866.2,618.4,1862.3,618.4z M1981.1,617.4c-3.8,0-7.5-1.5-10.2-4.5
			c-5.2-5.7-4.7-14.4,0.9-19.6c5.6-5.2,14.4-4.9,19.6,0.7c5.2,5.6,4.9,14.4-0.7,19.6l-0.2,0.2
			C1987.8,616.2,1984.4,617.4,1981.1,617.4z M1836.7,579.2c-5.9,0-11.3-3.8-13.2-9.7c-2.4-7.2,1.5-15,8.7-17.4
			c7.2-2.5,15.1,1.4,17.6,8.6l0.2,0.5c2.3,7.3-1.8,15.1-9.1,17.4C1839.5,579,1838.1,579.2,1836.7,579.2z M1836.7,565.4l-13.2,4.1
			l0,0L1836.7,565.4z M2006,577.7c-1.4,0-2.8-0.2-4.2-0.6c-7.3-2.3-11.3-10-9.1-17.3c2.2-7.3,9.9-11.5,17.2-9.4
			c7.3,2.2,11.6,9.8,9.4,17.2l-0.1,0.4C2017.4,573.9,2011.9,577.7,2006,577.7z M1834.7,532.4c-1,0-2-0.1-3-0.3
			c-7.5-1.6-12.2-9-10.5-16.5l0.1-0.5c1.8-7.4,9.3-12,16.7-10.2c7.4,1.8,11.9,9.2,10.2,16.6C1846.8,528,1841,532.4,1834.7,532.4z
			 M2007.2,530.9c-6.2,0-11.8-4.2-13.4-10.4l-0.1-0.4c-1.8-7.4,2.7-14.9,10.2-16.7c7.4-1.8,14.9,2.7,16.7,10.2l-13.5,3.3l13.5-3.3
			c2,7.4-2.5,14.9-9.9,16.9C2009.6,530.8,2008.4,530.9,2007.2,530.9z M1856.8,491.1c-3.4,0-6.9-1.3-9.6-3.8
			c-5.5-5.3-5.7-14-0.5-19.6c5.2-5.6,13.9-5.9,19.5-0.8c5.7,5.2,6.1,13.9,0.9,19.6l-0.3,0.4C1864.1,489.7,1860.4,491.1,1856.8,491.1
			z M1846.8,467.7l10,9.6L1846.8,467.7L1846.8,467.7z M1984.4,490c-3.5,0-7.1-1.3-9.8-4c0,0-0.1-0.1-0.1-0.1
			c-5.4-5.4-5.3-14.2,0.1-19.6c5.4-5.4,14.1-5.4,19.5,0c0,0,0.1,0.1,0.1,0.1c5.4,5.4,5.3,14.2-0.1,19.6
			C1991.4,488.6,1987.9,490,1984.4,490z M1896.9,466.8c-6,0-11.6-4-13.3-10c-2.1-7.3,2.1-15,9.4-17.1c0,0,0.1,0,0.1,0
			c7.3-2.2,15,2,17.2,9.4c2.2,7.3-2,15-9.4,17.2c0,0-0.2,0.1-0.2,0.1C1899.5,466.6,1898.2,466.8,1896.9,466.8z M1943.9,466.4
			c-1.1,0-2.3-0.1-3.4-0.4l-0.3-0.1c-7.4-2-11.8-9.6-9.8-17c2-7.4,9.6-11.8,17-9.8l-3.6,13.4l3.6-13.4c7.4,1.9,11.8,9.5,9.9,16.9
			C1955.6,462.3,1950,466.4,1943.9,466.4z"/>
	</g>
	<g>
		<path class="st3" d="M1934.1,585.1c-5.7,0-11-3.5-13-9.2c-2.6-7.2,1.1-15.1,8.3-17.7l0.2-0.1c7.2-2.5,15.1,1.2,17.7,8.5
			s-1.2,15.1-8.5,17.7l-0.1,0C1937.3,584.9,1935.7,585.1,1934.1,585.1z M1894.6,573.1c-4.1,0-8.1-1.8-10.9-5.2l0-0.1
			c-4.8-6-3.8-14.7,2.1-19.5c6-4.8,14.7-3.9,19.5,2.1l0.2,0.2c4.8,6,3.8,14.7-2.2,19.5C1900.6,572.1,1897.6,573.1,1894.6,573.1z
			 M1957.5,551.9c-7.5,0-13.7-6-13.8-13.6l0-0.5c0-7.7,6.2-13.9,13.9-13.9c7.6,0,13.8,6.2,13.9,13.8c0.1,7.6-5.9,13.9-13.6,14
			C1957.7,551.9,1957.6,551.9,1957.5,551.9z M1957.5,537.9l3.1,0l0.4,0H1957.5z M1893.7,531.9c-2.8,0-5.6-0.8-8-2.6
			c-6.2-4.4-7.7-13.1-3.3-19.3l11.3,8l-11.3-8.1c4.4-6.2,13-7.8,19.3-3.4c6.2,4.4,7.8,12.9,3.5,19.2l-0.2,0.3
			C1902.3,529.9,1898.1,531.9,1893.7,531.9z M1933,518.7c-1.4,0-2.7-0.2-4.1-0.6l-0.2-0.1c-7.3-2.3-11.3-10.1-9-17.4
			c2.3-7.3,10.1-11.3,17.4-9l0.1,0c7.3,2.3,11.4,10,9.1,17.3C1944.4,514.9,1938.9,518.7,1933,518.7z"/>
	</g>
</g>
<rect id="SVGID_3_" x="1850.7" y="522.1" class="st4" width="138.7" height="49.7"/>
</svg>
